<?xml version="1.0" standalone="no"?>
<!DOCTYPE svg PUBLIC "-//W3C//DTD SVG 1.1//EN" "http://www.w3.org/Graphics/SVG/1.1/DTD/svg11.dtd" >
<svg xmlns="http://www.w3.org/2000/svg" xmlns:xlink="http://www.w3.org/1999/xlink" version="1.1">
<metadata>
Created by FontForge 20190801 at Sun Nov 19 21:28:40 2006
 By Jimmy Wärting
alarixgot
</metadata>
<defs>
<font id="ChinaCyr" horiz-adv-x="603" >
  <font-face 
    font-family="ChinaCyr"
    font-weight="400"
    font-stretch="normal"
    units-per-em="1000"
    panose-1="4 3 5 5 2 8 2 2 12 4"
    ascent="800"
    descent="-200"
    x-height="800"
    cap-height="800"
    bbox="39.55 -355 1088 1017"
    underline-thickness="63"
    underline-position="-211"
    unicode-range="U+0020-2122"
  />
<missing-glyph horiz-adv-x="500" 
d="M63 0v900h375v-900h-375zM125 63h250v775h-250v-775z" />
    <glyph glyph-name=".notdef" horiz-adv-x="500" 
d="M63 0v900h375v-900h-375zM125 63h250v775h-250v-775z" />
    <glyph glyph-name=".null" horiz-adv-x="0" 
 />
    <glyph glyph-name="nonmarkingreturn" horiz-adv-x="366" 
 />
    <glyph glyph-name="space" unicode=" " horiz-adv-x="366" 
 />
    <glyph glyph-name="exclam" unicode="!" horiz-adv-x="210" 
d="M160 3l-75 -3q-5 16 -10 33t-12 36l86 -5q3 -12 6 -27t5 -34zM126 131l-20 -1q4 38 5.5 81t1.5 89q0 253 -73 499l116 1q7 -41 10.5 -93.5t3.5 -116.5q0 -110 -11 -224.5t-33 -234.5z" />
    <glyph glyph-name="quotedbl" unicode="&#x22;" horiz-adv-x="341" 
d="M78 571l-6 3q34 65 40 114l4 32l-49 -2q-5 19 -12 39.5t-15 42.5l103 -6q9 -14 9 -30q0 -6 -8 -43q-20 -78 -66 -150zM227 571l-7 3q31 56 40 114l5 32l-49 -2q-5 19 -12 39.5t-15 42.5l103 -6q9 -14 9 -31q0 -5 -8 -42v0q-17 -77 -66 -150z" />
    <glyph glyph-name="numbersign" unicode="#" horiz-adv-x="789" 
d="M252 712l-120 13q26 -84 42 -167q-64 -5 -121 -15l-13 -120q75 23 150 39q12 -93 12 -186v-7l-32 2q-61 5 -123 15l-1 -26q78 -22 155 -36q-1 -34 -4 -69q-5 -61 -15 -123l26 -1q26 93 41 185q123 -19 245 -19h17q4 -81 17 -150l120 -13q-26 84 -42 167q64 5 121 15
l13 120q-75 -23 -150 -39q-12 93 -12 186v7l32 -2q61 -5 123 -15l1 26q-78 22 -155 36q1 34 4 69q5 61 15 123l-26 1q-26 -93 -41 -185q-123 19 -245 19h-17q-4 81 -17 150zM291 266h-34q14 106 14 210q109 17 218 17h34q-14 -106 -14 -210q-109 -17 -218 -17z" />
    <glyph glyph-name="dollar" unicode="$" horiz-adv-x="547" 
d="M306 55l-30 -3l-13 -52h-28l7 50l-27 -1q-85 -3 -167 32l34 84q80 -58 147 -68l19 -3l7 74q10 118 9 197l-1 37l-9 2q-80 18 -145 12l-34 -3l-4 11h1l-5 13q-27 71 -27 152q0 53 17 102l8 22l39 13q25 8 52 14.5t56 10.5l3 1l-14 48l99 -11q1 -4 1.5 -10t2.5 -14v-4h2
q128 0 196 -31l-34 -98q-85 60 -147 73l-10 2l1 -3q7 -65 12 -128q1 -14 1 -46v-82v-5l19 -3q70 -10 129 -33v-3q34 -92 34 -183q0 -78 -22 -123v0q-52 -17 -96.5 -28t-82.5 -15zM289 107l-4 -17l17 -1q23 -2 41 0l27 2l17 24q65 92 77 166l4 25l-35 20q-13 8 -34 19t-49 25
l-27 11v-12q0 -59 -8.5 -125t-25.5 -137zM88 437l1 -9l18 4q67 15 130 15h24l-3 52q-6 104 -30 200l-5 20h-17h-10q-3 -1 -11 -1h-1l-18 -25q-82 -112 -82 -211q0 -4 1 -15.5t3 -29.5z" />
    <glyph glyph-name="percent" unicode="%" horiz-adv-x="768" 
d="M205 0l-83 70q183 412 509 699l26 -18q-341 -378 -452 -751zM577 20l-24 2l3 -10h-8l-5 11l-26 5l-6 50l15 -8l-3 10q-17 54 -9 105l1 7l-14 -4v8l15 6l1 3q1 7 3 18l51 6l-5 -10l3 1q32 12 82 10l27 -1l-4 12h8l6 -14l24 -4l6 -51l-13 7l2 -6q15 -47 9 -105l-1 -9l12 4
l1 -8l-15 -6v-1q0 -4 -3 -18l-51 -6l4 7l-19 -4q-40 -9 -67 -7zM646 46l26 4l10 25q18 44 6 112v0l-1 1q-40 21 -104 16l-26 -2l-9 -24q-20 -50 -6 -112v-3l20 -7q43 -16 84 -10zM85 586l-2 1l3 -10h-8l-4 12l-8 1l-7.5 2.5t-10.5 2.5l-4 50l15 -8l-2 9q-12 49 -4 106l1 7
l-14 -4v8l16 6l1 3q2 3 4 17l51 4l-6 -10l3 1q48 12 83 7l27 -4l-3 13h8l5 -14l23 -6l4 -51l-13 7l2 -5q15 -60 4 -106l-2 -8l13 3v-8l-15 -6v-1q-1 -3 -2 -7.5t-3 -9.5l-50 -4l4 7h-3q-13 -2 -27 -4t-31 -3q-20 -1 -48 2zM178 607l26 2l11 25q20 44 12 112v0h-2
q-57 26 -102 22l-26 -2l-10 -23q-16 -33 -16 -74q0 -22 4 -37v-3l19 -8q43 -17 84 -14z" />
    <glyph glyph-name="ampersand" unicode="&#x26;" 
 />
    <glyph glyph-name="quotesingle" unicode="'" horiz-adv-x="192" 
d="M78 571l-6 3q16 32 26 60t14 54l4 32l-49 -2q-5 19 -12 39.5t-15 42.5l103 -6q13 -22 6 -52l-5 -21q-16 -77 -66 -150z" />
    <glyph glyph-name="parenleft" unicode="(" horiz-adv-x="293" 
d="M224 0l29 2q-162 194 -162 382q0 158 116 304l-62 112q-13 -28 -31 -69t-41 -97q-33 -98 -33 -189q0 -213 184 -445z" />
    <glyph glyph-name="parenright" unicode=")" horiz-adv-x="293" 
d="M69 800l-29 -2q162 -194 162 -382q0 -158 -116 -304l62 -112q50 103 72 166q33 99 33 189q0 213 -184 445z" />
    <glyph glyph-name="asterisk" unicode="*" horiz-adv-x="492" 
d="M300 509l57 -48l-15 -70q-34 41 -57.5 81t-36.5 79l-8 25l-13 -13q-23 -23 -37 -58l-31 -73l-71 -8q48 78 123 139l20 16l-15 8q-28 15 -67 18l-80 6l-29 66q103 -23 170 -74l21 -16l4 18q1 6 1.5 12.5t0.5 13.5q0 24 -25 121l53 48q1 -14 1.5 -27t0.5 -26
q0 -74 -19 -132l-8 -25l18 3q38 6 132 66l62 -35q-42 -17 -87 -27.5t-94 -12.5l-26 -1l8 -16q14 -28 47 -58zM238 583v0v0v0z" />
    <glyph glyph-name="plus" unicode="+" horiz-adv-x="611" 
d="M260 138l-20 1q14 59 23 106.5t12 82.5l5 61l-48 4q-13 1 -33 1.5t-48 0.5q-48 -1 -111 -6l1 20q126 24 222 24h18v20q0 44 -6 95t-19 107l81 7q2 -26 3.5 -51t0.5 -50q-1 -51 -6 -99l-3 -29h6q52 0 110 -8t123 -24l-20 -79q-108 44 -195 57l-31 5l-6 -32
q-11 -58 -25.5 -111.5t-33.5 -102.5z" />
    <glyph glyph-name="comma" unicode="," horiz-adv-x="175" 
d="M72 0l-5 2q26 48 33 97l4 27l-41 -2q-7 23 -13 40.5t-10 28.5l87 -5q11 -20 5 -44l-4 -17q-16 -69 -56 -127z" />
    <glyph glyph-name="hyphen" unicode="-" 
d="M553 408l10 -86q-173 51 -339 51q-90 0 -184 -15v19q171 45 338 45q46 0 89.5 -3.5t85.5 -10.5z" />
    <glyph glyph-name="hyphen" unicode="&#x2010;" 
d="M553 408l10 -86q-173 51 -339 51q-90 0 -184 -15v19q171 45 338 45q46 0 89.5 -3.5t85.5 -10.5z" />
    <glyph glyph-name="period" unicode="." horiz-adv-x="196" 
d="M150 40l6 -36l-89 -4q-5 19 -12 39.5t-15 42.5l103 -6q2 -9 3.5 -18t3.5 -18z" />
    <glyph glyph-name="slash" unicode="/" horiz-adv-x="604" 
d="M537 800l27 -16q-314 -396 -400 -784l-124 54q45 124 158 311q152 246 339 435z" />
    <glyph glyph-name="zero" unicode="0" horiz-adv-x="683" 
d="M380 0q-52 0 -133 12l-21 3q-8 2 -17 3.5t-19 3.5l-15 4l-22 65q-79 234 -79 482q0 36 1.5 72.5t5.5 73.5l2 21l-42 -5l-1 21q144 44 281 44q87 0 199 -21v0l22 -66q66 -198 66 -414q0 -110 -15 -220l-3 -22l53 4v-21q-68 -20 -134 -30.5t-129 -9.5zM467 52h26l16 77
q31 143 31 282q0 125 -29 273l-2 5l-12 -61q-62 -314 -221 -552l-4 -6l20 -4q76 -14 175 -14zM184 120l3 -12l5 6q177 212 277 568l11 39l-15 4q-101 27 -199 27h-22h-8t-15 -1l-18 -1l-8 -34q-39 -166 -39 -328q0 -159 28 -268z" />
    <glyph glyph-name="one" unicode="1" horiz-adv-x="393" 
d="M353 0l-117 11q-10 61 -14.5 122.5t-4.5 123.5q0 198 50 406l16 65l-14 -24q-74 -128 -174 -214l-55 36q83 55 148.5 123.5t114.5 150.5l30 -1q-39 -215 -39 -383q0 -207 59 -416z" />
    <glyph glyph-name="two" unicode="2" horiz-adv-x="581" 
d="M541 112l-14 -112q-103 38 -231 38q-100 0 -235 -21l-1 17q-14 84 -14 128q0 213 216 255q94 18 143 82q46 58 46 136q0 43 -13 79l-8 24l-32 3q-10 1 -24 1.5t-31 0.5q-86 0 -146.5 -25.5t-123.5 -86.5l-33 109q99 60 226 60q123 0 258 -65l4 -11l3 -9q9 -27 9 -64
q0 -93 -53 -176q-61 -95 -164 -106q-256 -28 -256 -208q0 -27 8 -73l9 -46l53 19q159 56 330 56q17 0 35.5 -1.5t38.5 -3.5z" />
    <glyph glyph-name="three" unicode="3" horiz-adv-x="522" 
d="M53 0l-13 88q142 -3 210 14q86 23 125 90l11 19l-14 21l-60 93q-67 104 -160 115l4 15l22 9q47 19 74 50q24 27 45 78q25 63 42 102l2 5l-13 8q-106 66 -210 66q-14 0 -29 -1t-31 -3l3 18q59 13 131 13q150 0 290 -80l-61 -80q-3 -4 -10.5 -16t-20.5 -32l-30 -48
q-37 -49 -128 -82l-25 -9l14 -1q74 -5 127 -53q24 -27 74 -77l21 -19q-5 -221 -237 -278q-26 -7 -153 -25z" />
    <glyph glyph-name="four" unicode="4" horiz-adv-x="544" 
d="M374 0l-28 3q-11 81 -16.5 158.5t-5.5 151.5v36v15.5t1 19.5l2 45l-23 -1q-119 -5 -247 -73v0v0l-17 2q32 128 32 242q0 97 -21 201l95 -19q1 -8 1 -17v-19q0 -118 -53 -282l-6 -18l23 5q55 12 113 12q52 0 104 -9l3 38q15 182 47 297l126 5q-132 -301 -132 -717
q0 -18 0.5 -37t1.5 -39z" />
    <glyph glyph-name="five" unicode="5" horiz-adv-x="652" 
d="M203 0q-95 1 -163 42l14 115q163 -106 285 -106q40 0 76 7l12 2l4 47q4 61 -9 143l-11 63l-42 22q-47 25 -81 40t-54 22q-74 23 -154 23l-2 10h-1q0 171 59 307l4 9l-25 7l-2 17l34 -6l2 4q1 4 4.5 11.5t9.5 20.5l14 -3l-10 -36l5 -1q60 -12 147 -12q123 0 266 39
l27 -107q-17 -4 -65 -4q-161 0 -347 53l-38 11l-6 -33q-4 -23 -6 -45.5t-2 -44.5q0 -29 3 -68t10 -89l3 -23l33 1q107 3 183 -16q14 -4 42 -12.5t69 -22.5v0l1 -22q1 -11 1 -16.5t0 -4.5v-22q0 -140 -39 -246l-4 -11l26 5l-4 -16l-28 -10q-8 -20 -12 -33l-14 2l4 24l-28 -9
q-89 -30 -191 -28z" />
    <glyph glyph-name="six" unicode="6" horiz-adv-x="545" 
d="M246 0q-116 0 -198 20q-8 157 44 303l18 53q79 236 318 424v0l29 -12q-110 -96 -175 -186q-81 -111 -102 -218l-1 -5l13 4q22 7 70 13t122 13q19 1 52 -3q69 -190 75 -359l1 -28q-70 -10 -137 -14.5t-129 -4.5zM375 43l28 -2l1 7q18 126 18 230v40l-23 6q-81 21 -148 21
q-48 0 -80 -7h-2l-8 -45q-5 -32 -7 -70.5t0 -84.5l2 -42l15 -5q128 -43 204 -48z" />
    <glyph glyph-name="seven" unicode="7" horiz-adv-x="554" 
d="M201 0l-24 11q10 104 29 204.5t47 195.5l7 24l-36 -1q-19 -1 -40.5 1t-46.5 6l-7 51q78 -23 133 -23h7l10 31q11 35 35 92t59 135l5 11l-19 -5q-80 -21 -197 -21q-29 0 -57 1.5t-53 5.5l-13 81q134 -33 244 -33q14 0 28 0.5t28 1.5l57 4l1 3h15l42 5q5 1 19 3.5t39 7.5
l1 -18l-58 -93q-28 -45 -50 -86t-38 -78l-19 -44l40 5q14 2 35 6t49 11l1 -15q-26 -10 -54 -18t-59 -14l-25 -5l-5 -9q-34 -62 -66.5 -170.5t-63.5 -263.5z" />
    <glyph glyph-name="eight" unicode="8" horiz-adv-x="560" 
d="M301 12l-5 -3l1 -1l-13 -8l-1 1l-1 -1l-1 3l-22 19q-150 129 -202 232v0q92 104 149 141l25 16l-10 7q-34 23 -57.5 40t-36.5 27q-41 30 -64 57q-9 9 -23 29v0q85 131 200 216l5 3l-1 1l12 9l1 -1l1 1l1 -2l24 -17q148 -106 209 -194l13 -19l-15 -20q-77 -101 -122 -136
l-30 -23l15 -12q111 -89 147 -138q5 -7 9.5 -13t6.5 -11l4 -7q-97 -124 -219 -196zM242 73l2 -2l31 14q10 4 25 10.5t37 15.5q13 5 34 14t50 23l25 14l-8 28q-21 72 -81 140l-33 37l-43 -9q-76 -16 -130 -51l-20 -13l13 -35q44 -119 98 -186zM233 445l17 -14l42 12
q74 21 124 63l19 16l-16 32q-62 124 -115 177l-2 2l-29 -17q-34 -16 -140 -76l-24 -17l16 -36q38 -84 108 -142z" />
    <glyph glyph-name="nine" unicode="9" horiz-adv-x="617" 
d="M59 0l-19 17q189 117 292 268l26 38l-4 -4q-205 122 -268 194q-11 13 -17.5 21t-8.5 12v0q93 138 223 239l4 4l13 11l1 -1l1 1l2 -3l47 -34q139 -101 210 -198l16 -22q-187 -382 -518 -543zM296 388l68 -56l22 34q23 35 45 80t43 98l1 2v1q-17 29 -29.5 51t-20.5 35
q-25 42 -53 72l-20 21l-33 -19q-25 -12 -64 -33t-91 -51l-27 -19l13 -30q44 -102 146 -186z" />
    <glyph glyph-name="colon" unicode=":" horiz-adv-x="199" 
d="M144 3l-77 -3q-5 19 -12 39.5t-15 42.5l103 -6q9 -14 9 -31q0 -5 -8 -42zM159 508l-89 -4q-10 39 -27 82l103 -6q2 -12 5.5 -30t7.5 -42z" />
    <glyph glyph-name="semicolon" unicode=";" horiz-adv-x="200" 
d="M77 -147l-5 2q31 58 38 116l7 31l-50 -2q-7 27 -15 47.5t-12 34.5l103 -6q8 -12 8 -32q0 -16 -7 -40v0q-8 -37 -25.5 -75t-41.5 -76zM160 507l-91 -3q-7 25 -13.5 45.5t-12.5 36.5l104 -5l7 -36q3 -10 4 -18.5t2 -19.5z" />
    <glyph glyph-name="less" unicode="&#x3c;" horiz-adv-x="515" 
d="M475 15l-10 -15q-173 164 -362 227l-63 21v1l29 33l29 31q139 148 322 234l55 -65q-199 -62 -324 -162l-26 -21l2 -1q194 -96 348 -283z" />
    <glyph glyph-name="equal" unicode="=" horiz-adv-x="789" 
d="M736 320l13 -120q-225 70 -449 70q-63 0 -124 -4.5t-120 -14.5l-1 26q231 62 448 62q129 0 233 -19zM40 423l13 120q104 19 233 19q221 0 448 -63l-1 -26q-62 10 -123 15t-121 5q-224 0 -449 -70z" />
    <glyph glyph-name="greater" unicode="&#x3e;" horiz-adv-x="515" 
d="M51 0l-11 15q158 188 348 283l2 1l-25 21q-115 95 -325 162l56 65q164 -77 322 -235v0l1 -1l27 -29l29 -33v-1l-63 -21q-187 -62 -361 -227z" />
    <glyph glyph-name="question" unicode="?" horiz-adv-x="506" 
d="M288 40l6 -36l-89 -4q-5 19 -12 39.5t-15 42.5l103 -7q2 -8 3.5 -17t3.5 -18zM228 130l-28 -6q-42 80 -42 149q0 119 125 194q98 59 98 156q0 73 -51 129l-11 12l-26 -3q-74 -9 -121.5 -36t-92.5 -86l-39 82q98 81 229 81q60 0 121 -18l34 -10q42 -46 42 -137
q0 -129 -101 -191q-167 -101 -167 -212q0 -48 30 -104z" />
    <glyph glyph-name="at" unicode="@" horiz-adv-x="883" 
d="M138 1l-23 -1q9 92 9 178q0 258 -83 524l-1 23q46 -4 91 -6t88 -2q264 0 525 82v0v0l17 1q-4 -38 -5.5 -74t-1.5 -71q0 -161 41 -314l19 -69v-17q-32 4 -62.5 5.5t-61.5 1.5q-184 0 -366 -61l-11 -1q3 28 3 57q0 112 -50 273v0v0l-1 10q25 -3 49 -3q103 0 236 43v0v0h11
q-3 -28 -3 -56q0 -103 37 -217l3 -8h4q54 -1 126 -12l8 -1l-1 5q-10 52 -14.5 106.5t-4.5 110.5q0 76 9 156l3 27l-10 -2q-144 -27 -293 -27q-65 0 -130.5 5t-131.5 15l-13 2l2 -11q27 -141 27 -289q0 -133 -21 -268l-1 -6l11 2q136 24 289 24q95 0 191 -9.5t194 -28.5
l1 -23q-91 9 -179 9q-257 0 -526 -83v0zM339 311l-3 -30l6 1q41 8 79.5 12t72.5 5l46 1l-2 17q-12 80 -3 158l5 50l-7 -1q-47 -10 -108 -10q-33 0 -64 3l-31 3l1 -9q12 -65 12 -126q0 -19 -1 -37t-3 -37z" />
    <glyph glyph-name="A" unicode="A" horiz-adv-x="816" 
d="M198 0l-30 9q-5 66 36 248l6 27h-1q-90 0 -168 27l-1 28q41 -5 86 -8.5t94 -4.5v0l13 48q80 294 175 426l104 -23q-7 -10 -14.5 -22t-17.5 -26l-14 -22l1 -4q32 -130 48 -179q14 -46 29.5 -85.5t32.5 -71.5l2 -5h3q84 18 188 53l-6 -94q-50 -19 -132 -30l-15 -2v-1
q35 -70 159 -249l-105 -24q-68 95 -117 226l-15 40l-12 -1q-24 -2 -50 -3t-54 -1q-42 0 -70.5 0.5t-43.5 1.5l-45 3l-11 -36q-16 -53 -30 -114.5t-25 -130.5zM308 403l-29 -77h31q94 0 180 18l24 5l-22 68q-10 28 -18 58.5t-16 63.5q-4 19 -9 47t-13 66l-1 5l-14 -23
q-70 -118 -113 -231z" />
    <glyph glyph-name="B" unicode="B" horiz-adv-x="509" 
d="M110 0l-29 1q14 88 21.5 162.5t7.5 136.5q0 54 -3 92l-8 100q-5 68 -19.5 145t-39.5 163v0q40 -4 127 -27l4 -1h1l33 -11q179 -59 249 -173l15 -24l-16 -19q-4 -5 -9.5 -11.5t-12.5 -14.5l-15 -16l-7 -7q-91 -91 -175 -112l-4 -1l17 -8q131 -62 183 -146l3 -4l10 -16
l-4 -4q-15 -21 -22 -28l-23 -25v-1q-63 -75 -154 -116q-34 -16 -66.5 -24.5t-63.5 -10.5zM134 90l-8 -30l24 2q140 12 230 105l4 5l-9 19q-58 123 -187 178l-7 3h-1l-3 -37q-5 -60 -16 -121.5t-27 -123.5zM185 429l27 4q97 13 163 69l29 24l-10 20q-70 138 -198 190l-20 8
l3 -25q5 -46 8 -90t3 -86q0 -20 -1.5 -48.5t-3.5 -65.5z" />
    <glyph glyph-name="C" unicode="C" horiz-adv-x="587" 
d="M68 0l7 72l26 5l-4 13q-57 184 -57 416q0 99 18 237l3 23l1 21q134 -24 234 -24q133 0 251 37l-11 -72q-55 -8 -98.5 -12t-75.5 -4q-86 0 -180 20l-9 2l-7 -29q-54 -223 -54 -375q0 -103 18 -215l5 -31l11 2q32 5 66 8t69 3q131 0 258 -40v-21q-120 9 -182 9
q-154 0 -289 -45z" />
    <glyph glyph-name="D" unicode="D" horiz-adv-x="628" 
d="M130 0h-30q21 138 21 269q0 252 -81 513l15 18q229 -41 380 -158q128 -99 153 -205v0q-22 -124 -115 -235q-127 -151 -343 -202zM147 68l-11 -43l17 6q124 44 196 125q32 37 61 92.5t54 130.5l8 24l-13 31q-89 212 -268 292l-9 4l1 -11q2 -19 5.5 -47t7.5 -66
q2 -29 3 -58.5t1 -58.5q0 -211 -53 -421z" />
    <glyph glyph-name="E" unicode="E" horiz-adv-x="649" 
d="M596 97l13 -97q-172 49 -327 49q-23 0 -47.5 -1.5t-50.5 -3.5l-61 -6l-12 -35l-30 3l6 26l-40 -6l-1 21l47 13l6 30q29 140 30 253l1 56l-30 9v20l31 -5v6q0 121 -24 265l-3 18l-16 4q-8 2 -20 6t-28 8l1 21l58 -9l-1 5q-2 9 -4.5 22.5t-6.5 30.5l136 -26q0 -5 1 -13.5
t1 -11.5l1 -18l21 -1q168 -8 356 47l-14 -97q-83 -12 -159 -12q-32 0 -73 3t-91 10l-38 5v-33q0 -131 -15 -238l-1 -4h5q18 -2 35.5 -3t34.5 -1q100 0 260 46l-13 -92q-43 -5 -73.5 -8t-47.5 -3q-87 0 -188 25l-17 4l-1 -4q-20 -130 -63 -272l-10 -32l8 2q145 37 286 37
q43 0 85 -3t83 -10z" />
    <glyph glyph-name="F" unicode="F" horiz-adv-x="636" 
d="M111 0l-30 3q46 185 49 336l1 55l-31 9l1 20l30 -5v6q0 137 -23 264l-3 16l-15 2q-8 2 -20 4.5t-29 6.5l-1 21l60 -5l-2 7q-2 9 -4.5 22.5t-6.5 30.5l97 -17q1 -4 1 -10.5t1 -14.5l2 -22l58 1q161 3 350 70l-7 -97q-110 -25 -231 -25q-31 0 -63.5 2t-67.5 6l-35 4l3 -36
q3 -36 3 -241v-5l19 -2q19 -2 37 -3t34 -1q97 0 257 46l-12 -92q-43 -5 -73.5 -8t-47.5 -3q-40 0 -87 6t-100 19l-30 7v-4q0 -141 -84 -373z" />
    <glyph glyph-name="G" unicode="G" horiz-adv-x="620" 
d="M453 0q-142 -3 -332 42q-81 183 -81 377q0 61 8 126.5t24 136.5l14 62v6q211 50 375 50q73 0 118 -9l1 -119q-204 69 -360 69q-46 0 -73 -3l-36 -4l-4 -28q-7 -49 -10.5 -89.5t-3.5 -72.5q0 -282 147 -464l21 -26l14 1q52 4 100 13.5t93 23.5l61 20l-1 39q-3 103 -28 182
l-15 49l-31 -4q-64 -7 -199 -60l5 95q40 8 88 8q95 0 222 -26v0l4 -22q4 -17 4 -72q0 -97 -27 -226l-14 -67l-17 -3q-12 -2 -28.5 -3t-38.5 -2z" />
    <glyph glyph-name="H" unicode="H" horiz-adv-x="832" 
d="M200 0l-33 1q24 138 24 253q0 64 -3 91l-3 27l-17 2q-48 5 -79.5 11t-47.5 12l-1 28q45 -7 93 -9l48 -2l-3 26q-15 134 -81 360l110 -12q41 -137 41 -325v-51h70q88 0 186 19l68 13v19q0 187 41 325l110 12q-29 -96 -47.5 -174t-26.5 -138l-4 -28h1q25 7 61 18t85 26
l-6 -97q-48 -19 -137 -31l-14 -2l-3 -29q-3 -29 -3 -92q0 -114 24 -252l-33 -1q-47 115 -47 346v22l-31 -3q-26 -2 -59.5 -3.5t-73.5 -0.5q-29 0 -65.5 1.5t-79.5 3.5l-17 1v-21q0 -232 -47 -346z" />
    <glyph glyph-name="I" unicode="I" horiz-adv-x="257" 
d="M167 1l-30 -1q5 57 8 108t3 95q0 297 -108 597l140 -9q37 -161 37 -354q0 -207 -50 -436z" />
    <glyph glyph-name="J" unicode="J" horiz-adv-x="504" 
d="M236 0q-177 11 -196 204l80 -3q20 -92 49 -129q37 -49 119 -49q27 0 48 3l7 1l15 82q21 115 21 253q0 209 -56 438l133 -13q4 -35 6 -75t2 -86q0 -311 -95 -611q-76 -18 -133 -15z" />
    <glyph glyph-name="K" unicode="K" horiz-adv-x="646" 
d="M70 0l-30 4q65 239 65 462q0 153 -32 334l135 -31q8 -143 -12 -295l-6 -45l7 10q138 196 334 323l75 -66q-187 -88 -319 -214l-21 -20l18 -42q82 -192 276 -362l-82 -39q-160 184 -223 405l-6 21l-6 -6q-25 -25 -42 -45l-22 -26l-11 -55q-14 -67 -38.5 -145t-59.5 -168z
" />
    <glyph glyph-name="L" unicode="L" horiz-adv-x="586" 
d="M353 0q-90 -2 -179 16l-26 5l-3 -12l-105 1q82 222 82 484q0 62 -5 138.5t-15 167.5l30 -1q51 -223 51 -440q0 -149 -27 -297l-2 -11l24 -2q36 -3 63 -3q92 0 266 60l39 -80q-14 -2 -34 -6.5t-47 -9.5q-30 -4 -58 -6.5t-54 -3.5z" />
    <glyph glyph-name="M" unicode="M" horiz-adv-x="1128" 
d="M178 0l-138 26q222 330 272 654l4 26l-21 31q-13 19 -27 36l84 21q162 -277 199 -539l3 -21l5 29q47 270 207 537l84 -23q-5 -6 -12 -15t-16 -21l-12 -17l6 -34q60 -336 272 -655l-138 -25q-141 284 -171 629l-3 35l-5 -8q-125 -198 -186 -447l-19 -76l1 -5l-24 -9
q-64 304 -175 493l-17 29l-2 -22q-32 -346 -171 -629z" />
    <glyph glyph-name="N" unicode="N" horiz-adv-x="667" 
d="M617 22l-137 -22l-15 20q-64 85 -132 227q-29 61 -64.5 153.5t-76.5 217.5l-3 9l1 -6q10 -287 -91 -617l-30 1q17 85 25.5 169.5t8.5 167.5q0 223 -63 458l137 -20l77 -195q15 -37 27 -66t20 -49q81 -177 177 -294l32 -39l3 20q13 83 19 151.5t6 121.5q0 85 -10.5 176
t-30.5 189l30 2q100 -297 100 -595q0 -46 -2.5 -91t-7.5 -89z" />
    <glyph glyph-name="O" unicode="O" horiz-adv-x="592" 
d="M77 0l6 70q4 1 12 2.5t19 3.5l7 1l-6 17q-75 213 -75 462q0 33 3 79.5t8 107.5v0v0v0l116 -6q172 -9 350 63l-4 -70l-12 -3q-3 -1 -7.5 -2t-11.5 -3l-3 -1l10 -30q63 -189 63 -397q0 -25 -4.5 -83.5t-12.5 -152.5l-2 -22h-1l-56 4q-35 2 -64.5 3.5t-53.5 1.5
q-149 0 -281 -45zM415 84l32 -6l2 10q37 179 37 318q0 129 -27 257l-11 52l-5 -2q-43 -10 -86 -14.5t-86 -4.5q-27 0 -52 1.5t-48 5.5l-13 2l-3 -16q-5 -27 -12.5 -67t-15.5 -92q-9 -76 -9 -148q0 -98 29 -264l6 -33l21 4q48 8 113 8q34 0 65.5 -3t62.5 -8z" />
    <glyph glyph-name="P" unicode="P" horiz-adv-x="533" 
d="M144 1l-30 -1q8 81 12.5 146.5t4.5 115.5q0 51 -6 123l-4 48q-14 158 -81 347h2l6 13q19 4 39 5.5t40 1.5q138 0 250 -82q96 -69 116 -146q-26 -54 -96 -103q-88 -61 -193 -70l-11 -1l-1 -34q-4 -172 -48 -363zM193 466v-37l26 6q136 31 187 134l4 8l-10 22
q-59 131 -227 161l-11 2q31 -146 31 -296z" />
    <glyph glyph-name="Q" unicode="Q" horiz-adv-x="680" 
d="M526 -199l-115 7q-49 52 -99 171l-10 23q-4 -1 -16 -1h-18q-90 0 -228 41v22l52 -4l-2 25q-7 62 -10 113t-3 89q0 124 21.5 246.5t63.5 245.5v0q122 21 199 21q135 0 279 -44v-21l-42 5l2 -24q3 -30 5 -65.5t2 -77.5q0 -121 -20.5 -243.5t-60.5 -244.5l-19 -56l-15 -4
q-4 -1 -23.5 -4.5t-50.5 -8.5q-8 -1 -23 -2.5t-34 -4.5l-18 -1l4 -7q29 -47 73 -96.5t106 -99.5zM174 131l16 -76h25h57l10 1v1q-3 11 -8 26t-12 37l11 6q3 -8 9 -18t13 -24l15 -25l21 1q70 3 151 30l9 4l5 22q30 135 30 273q0 169 -38 321l-10 40l-17 1q-13 1 -25 1.5
t-24 0.5q-102 0 -195 -28l-38 -11l-7 -29q-30 -137 -30 -273q0 -68 8 -138.5t24 -142.5z" />
    <glyph glyph-name="R" unicode="R" horiz-adv-x="606" 
d="M566 4l-129 -4q-151 164 -246 414l-3 8l-1 -57q-2 -119 -15 -215q-5 -41 -13 -75t-18 -62l-32 1q11 67 17 129.5t6 121.5q0 88 -12 181l-1 2l-6 45l-9 48q-8 47 -24.5 111.5t-39.5 147.5l82 -9q62 -5 162 -18q115 -31 175 -117l14 -20l15 -23l-35 -41l-18 -18
q-99 -99 -194 -110l-34 -4q121 -240 359 -436zM185 541l2 -44l33 3q59 5 96 23q9 5 24 15t31.5 22t32.5 23t26 17l-17 19q-60 67 -119 96q-36 17 -110 36l-28 7l4 -15q19 -68 25 -202z" />
    <glyph glyph-name="S" unicode="S" 
d="M236 0q-114 2 -188 35l37 95q123 -87 258 -87q7 0 52 3l15 1l18 27q76 116 87 186l4 28l-38 23q-65 41 -141 70q-86 34 -176 34q-10 0 -48 -3l-38 -3l-3 8l-1 4l-6 18q-28 81 -28 165q0 80 27 141q150 55 295 55q112 0 196 -35l-39 -111q-74 53 -141 76.5t-131 23.5
q-9 0 -18 -0.5t-19 -1.5l-9 -1l-20 -28q-93 -131 -93 -238q0 -14 1 -26.5t3 -22.5l2 -11l20 5q73 19 162 19q124 0 249 -48v-3q38 -112 38 -206q0 -82 -24 -137v0q-156 -57 -303 -55z" />
    <glyph glyph-name="T" unicode="T" horiz-adv-x="724" 
d="M422 8l-127 -8q100 273 100 527q0 34 -1 61.5t-3 48.5l-5 52h-41q-141 0 -304 38l-1 23q118 -15 227 -15q227 0 417 65l-6 -80q-47 -10 -108.5 -17t-136.5 -12l-15 -1l6 -28q34 -155 34 -328q0 -162 -36 -326z" />
    <glyph glyph-name="U" unicode="U" horiz-adv-x="628" 
d="M363 0q-104 0 -184 18l-35 8q-104 310 -104 605q0 87 9 169l136 -2q-55 -219 -55 -414q0 -145 25 -261l15 -73l20 -2q5 -1 9.5 -1h9.5h19q76 0 192 33l7 2l14 38q89 244 89 529q0 25 -1.5 63t-3.5 88l29 -3q34 -173 34 -360q0 -235 -46 -395l-7 -25q-91 -17 -172 -17z
" />
    <glyph glyph-name="V" unicode="V" horiz-adv-x="722" 
d="M421 0l-129 13q-138 201 -199 427q-16 58 -30 149q-6 38 -12 75.5t-11 75.5l127 60q12 -351 122 -598l34 -76l3 13q73 313 328 634l28 -12q-217 -346 -261 -761z" />
    <glyph glyph-name="W" unicode="W" horiz-adv-x="1101" 
d="M391 0l-105 18v1q-176 253 -222 543l-12 84l-12 83l124 58q10 -340 119 -583l25 -56l2 13q39 253 210 517v0l102 16q21 -324 161 -584l28 -52l24 59q101 250 101 565q0 58 -3 118l128 -47q-28 -369 -233 -733l-29 7q-184 250 -262 575l-6 25l-14 -29q-121 -250 -126 -598
z" />
    <glyph glyph-name="X" unicode="X" horiz-adv-x="663" 
d="M67 0l-27 16q129 161 185 264l41 73l-12 20q-53 88 -96 183t-77 197l26 17q41 -92 79 -163t72 -122l44 -66l4 8q47 94 80.5 187.5t53.5 185.5l88 -64q-17 -49 -36 -95.5t-41 -91.5q-16 -34 -39 -76t-53 -93l-14 -24l7 -9q143 -183 271 -290l-97 -49q-58 61 -110 126.5
t-98 136.5l-14 21l-12 -18q-49 -73 -105 -141.5t-120 -132.5z" />
    <glyph glyph-name="Y" unicode="Y" horiz-adv-x="592" 
d="M293 4l-26 -4q-1 20 -2 51t-2 71q-3 90 -3 120q0 70 6 120l3 25l-25 24q-31 29 -59 65t-54 78q-37 62 -60 122q-5 14 -13 36t-18 51l97 37q7 -34 18 -83.5t27 -115.5q26 -100 74 -165l16 -22l8 47q31 184 182 336l90 -71q-115 -106 -171 -227q-47 -102 -63 -235
q-4 -44 -10.5 -109t-14.5 -151z" />
    <glyph glyph-name="Z" unicode="Z" horiz-adv-x="738" 
d="M40 0l7 38q94 222 233 426q56 83 110 150t105 118l5 6l-42 -3q-174 -12 -361 -57l18 108q49 7 100 10.5t104 3.5q95 0 190 -10.5t189 -32.5v-19q-87 -59 -170.5 -134t-162.5 -164q-73 -81 -136 -168t-118 -179l-26 -44l50 14q183 52 375 52q21 0 43.5 -1.5t46.5 -3.5
l11 -104q-111 27 -251 27q-158 0 -320 -33z" />
    <glyph glyph-name="bracketleft" unicode="[" horiz-adv-x="364" 
d="M246 0q-58 1 -145 24q-61 216 -61 462q0 166 25 306v0q25 4 46.5 6t40.5 2h8l23 -1q19 -1 50 -6.5t72 -16.5v-10q-47 8 -82 9q-17 1 -31 0.5t-27 -2.5l-13 -2l-15 -57q-41 -159 -41 -332q0 -62 5 -128.5t15 -137.5l12 -86h4q38 -6 61 -6q50 0 124 25l7 -41
q-26 -4 -45.5 -6t-32.5 -2z" />
    <glyph glyph-name="backslash" unicode="\" horiz-adv-x="516" 
d="M448 0l28 14q-239 347 -305 786l-131 -41q124 -433 408 -759z" />
    <glyph glyph-name="bracketright" unicode="]" horiz-adv-x="364" 
d="M118 0q-13 0 -32.5 2t-45.5 6l7 41q74 -25 124 -25q23 0 61 6h4l13 86q10 63 14.5 129.5t4.5 136.5q0 173 -41 332l-15 57l-13 2q-22 4 -56.5 2t-83.5 -9v10q43 11 73.5 16.5t49.5 6.5l24 1h6q19 0 40.5 -2t46.5 -6v0l4 -23q21 -121 21 -281q0 -248 -61 -464
q-87 -23 -145 -24z" />
    <glyph glyph-name="asciicircum" unicode="^" horiz-adv-x="317" 
 />
    <glyph glyph-name="underscore" unicode="_" horiz-adv-x="753" 
d="M491 0q-112 -1 -225 12t-226 40v21q61 -8 120 -12t117 -4q219 0 436 58l-13 -99q-46 -8 -98 -11.5t-111 -4.5z" />
    <glyph glyph-name="grave" unicode="`" horiz-adv-x="314" 
 />
    <glyph glyph-name="a" unicode="a" horiz-adv-x="816" 
d="M198 0l-30 9q-5 66 36 248l6 27h-1q-90 0 -168 27l-1 28q41 -5 86 -8.5t94 -4.5v0l13 48q80 294 175 426l104 -23q-7 -10 -14.5 -22t-17.5 -26l-14 -22l1 -4q32 -130 48 -179q14 -46 29.5 -85.5t32.5 -71.5l2 -5h3q84 18 188 53l-6 -94q-50 -19 -132 -30l-15 -2v-1
q35 -70 159 -249l-105 -24q-68 95 -117 226l-15 40l-12 -1q-24 -2 -50 -3t-54 -1q-42 0 -70.5 0.5t-43.5 1.5l-45 3l-11 -36q-16 -53 -30 -114.5t-25 -130.5zM308 403l-29 -77h31q94 0 180 18l24 5l-22 68q-10 28 -18 58.5t-16 63.5q-4 19 -9 47t-13 66l-1 5l-14 -23
q-70 -118 -113 -231z" />
    <glyph glyph-name="b" unicode="b" horiz-adv-x="509" 
d="M110 0l-29 1q14 88 21.5 162.5t7.5 136.5q0 54 -3 92l-8 100q-5 68 -19.5 145t-39.5 163v0q40 -4 127 -27l4 -1h1l33 -11q179 -59 249 -173l15 -24l-16 -19q-4 -5 -9.5 -11.5t-12.5 -14.5l-15 -16l-7 -7q-91 -91 -175 -112l-4 -1l17 -8q131 -62 183 -146l3 -4l10 -16
l-4 -4q-15 -21 -22 -28l-23 -25v-1q-63 -75 -154 -116q-34 -16 -66.5 -24.5t-63.5 -10.5zM134 90l-8 -30l24 2q140 12 230 105l4 5l-9 19q-58 123 -187 178l-7 3h-1l-3 -37q-5 -60 -16 -121.5t-27 -123.5zM185 429l27 4q97 13 163 69l29 24l-10 20q-70 138 -198 190l-20 8
l3 -25q5 -46 8 -90t3 -86q0 -20 -1.5 -48.5t-3.5 -65.5z" />
    <glyph glyph-name="c" unicode="c" horiz-adv-x="587" 
d="M68 0l7 72l26 5l-4 13q-57 184 -57 416q0 99 18 237l3 23l1 21q134 -24 234 -24q133 0 251 37l-11 -72q-55 -8 -98.5 -12t-75.5 -4q-86 0 -180 20l-9 2l-7 -29q-54 -223 -54 -375q0 -103 18 -215l5 -31l11 2q32 5 66 8t69 3q131 0 258 -40v-21q-120 9 -182 9
q-154 0 -289 -45z" />
    <glyph glyph-name="d" unicode="d" horiz-adv-x="628" 
d="M130 0h-30q21 138 21 269q0 252 -81 513l15 18q229 -41 380 -158q128 -99 153 -205v0q-22 -124 -115 -235q-127 -151 -343 -202zM147 68l-11 -43l17 6q124 44 196 125q32 37 61 92.5t54 130.5l8 24l-13 31q-89 212 -268 292l-9 4l1 -11q2 -19 5.5 -47t7.5 -66
q2 -29 3 -58.5t1 -58.5q0 -211 -53 -421z" />
    <glyph glyph-name="e" unicode="e" horiz-adv-x="649" 
d="M596 97l13 -97q-172 49 -327 49q-23 0 -47.5 -1.5t-50.5 -3.5l-61 -6l-12 -35l-30 3l6 26l-40 -6l-1 21l47 13l6 30q29 140 30 253l1 56l-30 9v20l31 -5v6q0 121 -24 265l-3 18l-16 4q-8 2 -20 6t-28 8l1 21l58 -9l-1 5q-2 9 -4.5 22.5t-6.5 30.5l136 -26q0 -5 1 -13.5
t1 -11.5l1 -18l21 -1q168 -8 356 47l-14 -97q-83 -12 -159 -12q-32 0 -73 3t-91 10l-38 5v-33q0 -131 -15 -238l-1 -4h5q18 -2 35.5 -3t34.5 -1q100 0 260 46l-13 -92q-43 -5 -73.5 -8t-47.5 -3q-87 0 -188 25l-17 4l-1 -4q-20 -130 -63 -272l-10 -32l8 2q145 37 286 37
q43 0 85 -3t83 -10z" />
    <glyph glyph-name="f" unicode="f" horiz-adv-x="636" 
d="M111 0l-30 3q46 185 49 336l1 55l-31 9l1 20l30 -5v6q0 137 -23 264l-3 16l-15 2q-8 2 -20 4.5t-29 6.5l-1 21l60 -5l-2 7q-2 9 -4.5 22.5t-6.5 30.5l97 -17q1 -4 1 -10.5t1 -14.5l2 -22l58 1q161 3 350 70l-7 -97q-110 -25 -231 -25q-31 0 -63.5 2t-67.5 6l-35 4l3 -36
q3 -36 3 -241v-5l19 -2q19 -2 37 -3t34 -1q97 0 257 46l-12 -92q-43 -5 -73.5 -8t-47.5 -3q-40 0 -87 6t-100 19l-30 7v-4q0 -141 -84 -373z" />
    <glyph glyph-name="g" unicode="g" horiz-adv-x="620" 
d="M453 0q-142 -3 -332 42q-81 183 -81 377q0 61 8 126.5t24 136.5l14 62v6q211 50 375 50q73 0 118 -9l1 -119q-204 69 -360 69q-46 0 -73 -3l-36 -4l-4 -28q-7 -49 -10.5 -89.5t-3.5 -72.5q0 -282 147 -464l21 -26l14 1q52 4 100 13.5t93 23.5l61 20l-1 39q-3 103 -28 182
l-15 49l-31 -4q-64 -7 -199 -60l5 95q40 8 88 8q95 0 222 -26v0l4 -22q4 -17 4 -72q0 -97 -27 -226l-14 -67l-17 -3q-12 -2 -28.5 -3t-38.5 -2z" />
    <glyph glyph-name="h" unicode="h" horiz-adv-x="832" 
d="M200 0l-33 1q24 138 24 253q0 64 -3 91l-3 27l-17 2q-48 5 -79.5 11t-47.5 12l-1 28q45 -7 93 -9l48 -2l-3 26q-15 134 -81 360l110 -12q41 -137 41 -325v-51h70q88 0 186 19l68 13v19q0 187 41 325l110 12q-29 -96 -47.5 -174t-26.5 -138l-4 -28h1q25 7 61 18t85 26
l-6 -97q-48 -19 -137 -31l-14 -2l-3 -29q-3 -29 -3 -92q0 -114 24 -252l-33 -1q-47 115 -47 346v22l-31 -3q-26 -2 -59.5 -3.5t-73.5 -0.5q-29 0 -65.5 1.5t-79.5 3.5l-17 1v-21q0 -232 -47 -346z" />
    <glyph glyph-name="i" unicode="i" horiz-adv-x="257" 
d="M167 1l-30 -1q5 57 8 108t3 95q0 297 -108 597l140 -9q37 -161 37 -354q0 -207 -50 -436z" />
    <glyph glyph-name="j" unicode="j" horiz-adv-x="504" 
d="M236 0q-177 11 -196 204l80 -3q20 -92 49 -129q37 -49 119 -49q27 0 48 3l7 1l15 82q21 115 21 253q0 209 -56 438l133 -13q4 -35 6 -75t2 -86q0 -311 -95 -611q-76 -18 -133 -15z" />
    <glyph glyph-name="k" unicode="k" horiz-adv-x="646" 
d="M70 0l-30 4q65 239 65 462q0 153 -32 334l135 -31q8 -143 -12 -295l-6 -45l7 10q138 196 334 323l75 -66q-187 -88 -319 -214l-21 -20l18 -42q82 -192 276 -362l-82 -39q-160 184 -223 405l-6 21l-6 -6q-25 -25 -42 -45l-22 -26l-11 -55q-14 -67 -38.5 -145t-59.5 -168z
" />
    <glyph glyph-name="l" unicode="l" horiz-adv-x="586" 
d="M353 0q-90 -2 -179 16l-26 5l-3 -12l-105 1q82 222 82 484q0 62 -5 138.5t-15 167.5l30 -1q51 -223 51 -440q0 -149 -27 -297l-2 -11l24 -2q36 -3 63 -3q92 0 266 60l39 -80q-14 -2 -34 -6.5t-47 -9.5q-30 -4 -58 -6.5t-54 -3.5z" />
    <glyph glyph-name="m" unicode="m" horiz-adv-x="1128" 
d="M178 0l-138 26q222 330 272 654l4 26l-21 31q-13 19 -27 36l84 21q162 -277 199 -539l3 -21l5 29q47 270 207 537l84 -23q-5 -6 -12 -15t-16 -21l-12 -17l6 -34q60 -336 272 -655l-138 -25q-141 284 -171 629l-3 35l-5 -8q-125 -198 -186 -447l-19 -76l1 -5l-24 -9
q-64 304 -175 493l-17 29l-2 -22q-32 -346 -171 -629z" />
    <glyph glyph-name="n" unicode="n" horiz-adv-x="667" 
d="M617 22l-137 -22l-15 20q-64 85 -132 227q-29 61 -64.5 153.5t-76.5 217.5l-3 9l1 -6q10 -287 -91 -617l-30 1q17 85 25.5 169.5t8.5 167.5q0 223 -63 458l137 -20l77 -195q15 -37 27 -66t20 -49q81 -177 177 -294l32 -39l3 20q13 83 19 151.5t6 121.5q0 85 -10.5 176
t-30.5 189l30 2q100 -297 100 -595q0 -46 -2.5 -91t-7.5 -89z" />
    <glyph glyph-name="o" unicode="o" horiz-adv-x="592" 
d="M77 0l6 70q4 1 12 2.5t19 3.5l7 1l-6 17q-75 213 -75 462q0 33 3 79.5t8 107.5v0v0v0l116 -6q172 -9 350 63l-4 -70l-12 -3q-3 -1 -7.5 -2t-11.5 -3l-3 -1l10 -30q63 -189 63 -397q0 -25 -4.5 -83.5t-12.5 -152.5l-2 -22h-1l-56 4q-35 2 -64.5 3.5t-53.5 1.5
q-149 0 -281 -45zM415 84l32 -6l2 10q37 179 37 318q0 129 -27 257l-11 52l-5 -2q-43 -10 -86 -14.5t-86 -4.5q-27 0 -52 1.5t-48 5.5l-13 2l-3 -16q-5 -27 -12.5 -67t-15.5 -92q-9 -76 -9 -148q0 -98 29 -264l6 -33l21 4q48 8 113 8q34 0 65.5 -3t62.5 -8z" />
    <glyph glyph-name="p" unicode="p" horiz-adv-x="533" 
d="M144 1l-30 -1q8 81 12.5 146.5t4.5 115.5q0 51 -6 123l-4 48q-14 158 -81 347h2l6 13q19 4 39 5.5t40 1.5q138 0 250 -82q96 -69 116 -146q-26 -54 -96 -103q-88 -61 -193 -70l-11 -1l-1 -34q-4 -172 -48 -363zM193 466v-37l26 6q136 31 187 134l4 8l-10 22
q-59 131 -227 161l-11 2q31 -146 31 -296z" />
    <glyph glyph-name="q" unicode="q" horiz-adv-x="680" 
d="M526 -199l-115 7q-49 52 -99 171l-10 23q-4 -1 -16 -1h-18q-90 0 -228 41v22l52 -4l-2 25q-7 62 -10 113t-3 89q0 124 21.5 246.5t63.5 245.5v0q122 21 199 21q135 0 279 -44v-21l-42 5l2 -24q3 -30 5 -65.5t2 -77.5q0 -121 -20.5 -243.5t-60.5 -244.5l-19 -56l-15 -4
q-4 -1 -23.5 -4.5t-50.5 -8.5q-8 -1 -23 -2.5t-34 -4.5l-18 -1l4 -7q29 -47 73 -96.5t106 -99.5zM174 131l16 -76h25h57l10 1v1q-3 11 -8 26t-12 37l11 6q3 -8 9 -18t13 -24l15 -25l21 1q70 3 151 30l9 4l5 22q30 135 30 273q0 169 -38 321l-10 40l-17 1q-13 1 -25 1.5
t-24 0.5q-102 0 -195 -28l-38 -11l-7 -29q-30 -137 -30 -273q0 -68 8 -138.5t24 -142.5z" />
    <glyph glyph-name="r" unicode="r" horiz-adv-x="606" 
d="M566 4l-129 -4q-151 164 -246 414l-3 8l-1 -57q-2 -119 -15 -215q-5 -41 -13 -75t-18 -62l-32 1q11 67 17 129.5t6 121.5q0 88 -12 181l-1 2l-6 45l-9 48q-8 47 -24.5 111.5t-39.5 147.5l82 -9q62 -5 162 -18q115 -31 175 -117l14 -20l15 -23l-35 -41l-18 -18
q-99 -99 -194 -110l-34 -4q121 -240 359 -436zM185 541l2 -44l33 3q59 5 96 23q9 5 24 15t31.5 22t32.5 23t26 17l-17 19q-60 67 -119 96q-36 17 -110 36l-28 7l4 -15q19 -68 25 -202z" />
    <glyph glyph-name="s" unicode="s" 
d="M236 0q-114 2 -188 35l37 95q123 -87 258 -87q7 0 52 3l15 1l18 27q76 116 87 186l4 28l-38 23q-65 41 -141 70q-86 34 -176 34q-10 0 -48 -3l-38 -3l-3 8l-1 4l-6 18q-28 81 -28 165q0 80 27 141q150 55 295 55q112 0 196 -35l-39 -111q-74 53 -141 76.5t-131 23.5
q-9 0 -18 -0.5t-19 -1.5l-9 -1l-20 -28q-93 -131 -93 -238q0 -14 1 -26.5t3 -22.5l2 -11l20 5q73 19 162 19q124 0 249 -48v-3q38 -112 38 -206q0 -82 -24 -137v0q-156 -57 -303 -55z" />
    <glyph glyph-name="t" unicode="t" horiz-adv-x="724" 
d="M422 8l-127 -8q100 273 100 527q0 34 -1 61.5t-3 48.5l-5 52h-41q-141 0 -304 38l-1 23q118 -15 227 -15q227 0 417 65l-6 -80q-47 -10 -108.5 -17t-136.5 -12l-15 -1l6 -28q34 -155 34 -328q0 -162 -36 -326z" />
    <glyph glyph-name="u" unicode="u" horiz-adv-x="628" 
d="M363 0q-104 0 -184 18l-35 8q-104 310 -104 605q0 87 9 169l136 -2q-55 -219 -55 -414q0 -145 25 -261l15 -73l20 -2q5 -1 9.5 -1h9.5h19q76 0 192 33l7 2l14 38q89 244 89 529q0 25 -1.5 63t-3.5 88l29 -3q34 -173 34 -360q0 -235 -46 -395l-7 -25q-91 -17 -172 -17z
" />
    <glyph glyph-name="v" unicode="v" horiz-adv-x="722" 
d="M421 0l-129 13q-138 201 -199 427q-16 58 -30 149q-6 38 -12 75.5t-11 75.5l127 60q12 -351 122 -598l34 -76l3 13q73 313 328 634l28 -12q-217 -346 -261 -761z" />
    <glyph glyph-name="w" unicode="w" horiz-adv-x="1101" 
d="M391 0l-105 18v1q-176 253 -222 543l-12 84l-12 83l124 58q10 -340 119 -583l25 -56l2 13q39 253 210 517v0l102 16q21 -324 161 -584l28 -52l24 59q101 250 101 565q0 58 -3 118l128 -47q-28 -369 -233 -733l-29 7q-184 250 -262 575l-6 25l-14 -29q-121 -250 -126 -598
z" />
    <glyph glyph-name="x" unicode="x" horiz-adv-x="663" 
d="M67 0l-27 16q129 161 185 264l41 73l-12 20q-53 88 -96 183t-77 197l26 17q41 -92 79 -163t72 -122l44 -66l4 8q47 94 80.5 187.5t53.5 185.5l88 -64q-17 -49 -36 -95.5t-41 -91.5q-16 -34 -39 -76t-53 -93l-14 -24l7 -9q143 -183 271 -290l-97 -49q-58 61 -110 126.5
t-98 136.5l-14 21l-12 -18q-49 -73 -105 -141.5t-120 -132.5z" />
    <glyph glyph-name="y" unicode="y" horiz-adv-x="592" 
d="M293 4l-26 -4q-1 20 -2 51t-2 71q-3 90 -3 120q0 70 6 120l3 25l-25 24q-31 29 -59 65t-54 78q-37 62 -60 122q-5 14 -13 36t-18 51l97 37q7 -34 18 -83.5t27 -115.5q26 -100 74 -165l16 -22l8 47q31 184 182 336l90 -71q-115 -106 -171 -227q-47 -102 -63 -235
q-4 -44 -10.5 -109t-14.5 -151z" />
    <glyph glyph-name="z" unicode="z" horiz-adv-x="738" 
d="M40 0l7 38q94 222 233 426q56 83 110 150t105 118l5 6l-42 -3q-174 -12 -361 -57l18 108q49 7 100 10.5t104 3.5q95 0 190 -10.5t189 -32.5v-19q-87 -59 -170.5 -134t-162.5 -164q-73 -81 -136 -168t-118 -179l-26 -44l50 14q183 52 375 52q21 0 43.5 -1.5t46.5 -3.5
l11 -104q-111 27 -251 27q-158 0 -320 -33z" />
    <glyph glyph-name="braceleft" unicode="{" horiz-adv-x="330" 
 />
    <glyph glyph-name="bar" unicode="|" horiz-adv-x="634" 
 />
    <glyph glyph-name="braceright" unicode="}" horiz-adv-x="330" 
 />
    <glyph glyph-name="asciitilde" unicode="~" horiz-adv-x="472" 
 />
    <glyph glyph-name="currency" unicode="&#xa4;" 
 />
    <glyph glyph-name="brokenbar" unicode="&#xa6;" horiz-adv-x="634" 
 />
    <glyph glyph-name="section" unicode="&#xa7;" horiz-adv-x="440" 
 />
    <glyph glyph-name="copyright" unicode="&#xa9;" horiz-adv-x="846" 
 />
    <glyph glyph-name="guillemotleft" unicode="&#xab;" horiz-adv-x="729" 
d="M431 13l-12 -13q-139 171 -321 261l-58 29l24 35q125 182 301 292l61 -55q-92 -41 -164 -90.5t-125 -105.5l-25 -27l4 -3q207 -155 315 -323zM689 13l-12 -13q-140 172 -320 261l-58 29q133 208 324 327l62 -55q-186 -85 -289 -196l-25 -27l4 -3q204 -153 314 -323z" />
    <glyph glyph-name="logicalnot" unicode="&#xac;" 
d="M536.5 165q-1.5 -15 -3.5 -32q-3 -15 -5.5 -25.5t-4.5 -18.5l-48 21q36 96 26 136q0 15 -5 38l-1 13l-6 -1q-77 -8 -166 -8q-131 0 -265 28l-1 16q55 -6 101 -8.5t83 -2.5q158 0 292 45l1 -58l-8 -1l3 -14q11 -49 10 -98q-1 -15 -2.5 -30z" />
    <glyph glyph-name="registered" unicode="&#xae;" horiz-adv-x="846" 
 />
    <glyph glyph-name="degree" unicode="&#xb0;" horiz-adv-x="289" 
d="M83 597h-2l3 -9h-8l-4 11l-8 2q-9 0 -16 4l-4 48l14 -8l-2 9q-5 25 -6.5 50t2.5 50l1 7l-13 -4v8l15 5l1 3q1 3 1.5 7.5t2.5 9.5l48 3l-5 -9l3 1q44 11 79 6l25 -3l-3 12h8l4 -14l23 -5l3 -48l-12 7l2 -6q11 -44 3 -100l-1 -8l12 3v-8l-14 -5v-1q0 -2 -4 -17l-49 -3l4 7
l-3 -1q-8 -2 -21.5 -4t-33.5 -3q-24 -2 -45 3zM171 616l25 2l10 24q18 43 12 106v0l-2 1q-40 22 -97 20l-25 -1l-9 -22q-21 -51 -12 -106v-3l19 -8q37 -16 79 -13z" />
    <glyph glyph-name="plusminus" unicode="&#xb1;" horiz-adv-x="539" 
d="M236 212l-18 1q12 54 20 97.5t11 75.5l4 56l-42 3q-11 1 -28.5 1.5t-42.5 0.5q-42 -1 -97 -5l1 18q110 22 194 22h16v18q0 41 -5 87.5t-17 98.5l71 6q2 -24 3 -47t1 -46q-1 -46 -6 -90l-2 -27h5q45 0 96 -7.5t108 -21.5l-18 -73q-94 41 -170 53l-27 4l-6 -29
q-9 -53 -22 -102t-29 -94zM495 187l9 -79q-152 47 -297 47q-79 0 -161 -14v17q149 42 296 42q40 0 78 -3.5t75 -9.5z" />
    <glyph glyph-name="paragraph" unicode="&#xb6;" horiz-adv-x="593" 
 />
    <glyph glyph-name="guillemotright" unicode="&#xbb;" horiz-adv-x="729" 
d="M52 0l-12 13q108 168 315 323l4 3l-26 27q-111 114 -288 196l61 55q177 -112 301 -292l24 -35h-1l-57 -29q-185 -95 -321 -261zM311 0l-12 13q54 85 132.5 165.5t181.5 157.5l4 3l-25 27q-103 111 -289 196l62 55q187 -117 301 -292l23 -35l-58 -29q-180 -89 -320 -261z
" />
    <glyph glyph-name="mu" unicode="&#xb5;" horiz-adv-x="647" 
 />
    <glyph glyph-name="mu" unicode="&#x3bc;" horiz-adv-x="647" 
 />
    <glyph glyph-name="afii10023" unicode="&#x401;" horiz-adv-x="648" 
d="M596 97l12 -97q-169 49 -326 49q-26 0 -49.5 -1t-48.5 -4l-61 -6l-13 -36l-29 4l6 26l-40 -6l-1 21l47 13l6 30q31 143 31 253v56l-31 9l1 20l31 -5v6q0 81 -24 265l-3 18l-16 4q-8 1 -20 5.5t-28 8.5l1 21l58 -9l-1 5q-2 2 -11 53l135 -26q0 -4 1 -10.5t2 -14.5l1 -18
l21 -1q154 -9 355 48l-12 -98q-84 -12 -159 -12q-84 0 -164 12l-40 7l2 -34q2 -60 -2 -119.5t-14 -118.5v-3l4 -2q36 -3 70 -3q98 0 260 45l-13 -91q-40 -5 -70 -8t-52 -3q-35 0 -81.5 6.5t-105.5 18.5l-17 3v-3q-8 -53 -23.5 -121t-40.5 -150l-10 -34l7 3q111 35 290 35
q40 0 81 -2.5t84 -8.5zM291 901l-88 -4q-5 18 -12 39t-15 44l103 -6q8 -32 12 -73zM495 903l-90 4q6 46 13 73l104 6q-8 -25 -15 -45t-12 -38z" />
    <glyph glyph-name="afii10017" unicode="&#x410;" horiz-adv-x="816" 
d="M198 0l-30 9q-5 66 36 248l6 27h-1q-90 0 -168 27l-1 28q41 -5 86 -8.5t94 -4.5v0l13 48q80 294 175 426l104 -23q-7 -10 -14.5 -22t-17.5 -26l-14 -22l1 -4q32 -130 48 -179q14 -46 29.5 -85.5t32.5 -71.5l2 -5h3q84 18 188 53l-6 -94q-50 -19 -132 -30l-15 -2v-1
q35 -70 159 -249l-105 -24q-68 95 -117 226l-15 40l-12 -1q-24 -2 -50 -3t-54 -1q-42 0 -70.5 0.5t-43.5 1.5l-45 3l-11 -36q-16 -53 -30 -114.5t-25 -130.5zM308 403l-29 -77h31q94 0 180 18l24 5l-22 68q-10 28 -18 58.5t-16 63.5q-4 19 -9 47t-13 66l-1 5l-14 -23
q-70 -118 -113 -231z" />
    <glyph glyph-name="afii10018" unicode="&#x411;" horiz-adv-x="619" 
d="M278 0q-50 0 -94 3q-14 1 -35 3t-49 5l-11 2h-49q79 204 79 351v14l-5 1q-10 2 -21 5t-22 7l-1 21l50 -7l2 41q2 38 -1.5 101t-11.5 151l-4 42l-33 10l1 19l30 -5l-3 36l32 -2l7 -40l55 -6q19 -2 40 -3t45 -1q133 0 287 45l-11 -89q-42 -5 -78 -8t-67 -3q-133 0 -254 33
l-11 3l1 -4q10 -47 24 -152q4 -34 6 -70.5t4 -77.5l1 -28h5q31 -4 59 -6t53 -2q118 0 235 47v0v0l12 1q17 -73 25.5 -146t8.5 -146q0 -61 -6 -116v0q-157 -29 -295 -29zM436 47h40l7 28q4 13 9.5 34.5t12.5 52.5q5 19 11 49t14 73l4 36l-11 -2q-5 -1 -16.5 -1.5t-28.5 -0.5
q-115 0 -284 43l-12 3v-38q0 -113 -17 -221l-1 -6l56 -15q134 -35 216 -35z" />
    <glyph glyph-name="afii10019" unicode="&#x412;" horiz-adv-x="509" 
d="M110 0l-29 1q14 88 21.5 162.5t7.5 136.5q0 54 -3 92l-8 100q-5 68 -19.5 145t-39.5 163v0q40 -4 127 -27l4 -1h1l33 -11q179 -59 249 -173l15 -24l-16 -19q-4 -5 -9.5 -11.5t-12.5 -14.5l-15 -16l-7 -7q-91 -91 -175 -112l-4 -1l17 -8q131 -62 183 -146l3 -4l10 -16
l-4 -4q-15 -21 -22 -28l-23 -25v-1q-63 -75 -154 -116q-34 -16 -66.5 -24.5t-63.5 -10.5zM134 90l-8 -30l24 2q140 12 230 105l4 5l-9 19q-58 123 -187 178l-7 3h-1l-3 -37q-5 -60 -16 -121.5t-27 -123.5zM185 429l27 4q97 13 163 69l29 24l-10 20q-70 138 -198 190l-20 8
l3 -25q5 -46 8 -90t3 -86q0 -20 -1.5 -48.5t-3.5 -65.5z" />
    <glyph glyph-name="afii10020" unicode="&#x413;" horiz-adv-x="631" 
d="M98 0l-30 2q25 119 37 221t12 185q0 139 -28 270l-8 39l-41 11l1 21l34 -5l-11 41l122 15q1 -14 6 -55l1 -15l49 -2q157 -6 349 46l-13 -95q-45 -5 -84.5 -8t-73.5 -3q-87 0 -199 18l-25 4v-14q0 -13 1.5 -39.5t1.5 -39.5q0 -285 -101 -597z" />
    <glyph glyph-name="afii10021" unicode="&#x414;" horiz-adv-x="904" 
d="M40 0l16 136q9 1 22.5 3t32.5 4l9 1l6 23q61 234 263 537l2 3l33 44q11 14 20.5 26.5t17.5 22.5l27 -12q207 -291 276 -643l8 -41h2l32 -7q23 -5 57 -15l-1 -29q-17 2 -42 5.5t-59 7.5h-5l-5 -2l-1 3l-90 7q-25 2 -53.5 3t-59.5 1q-235 0 -508 -78zM689 121l48 -9l-14 43
q-83 254 -296 512l-5 6l-17 -32q-56 -107 -96.5 -228.5t-63.5 -258.5v0h20q13 0 39 1t39 1q153 0 346 -35z" />
    <glyph glyph-name="afii10022" unicode="&#x415;" horiz-adv-x="649" 
d="M596 97l13 -97q-172 49 -327 49q-23 0 -47.5 -1.5t-50.5 -3.5l-61 -6l-12 -35l-30 3l6 26l-40 -6l-1 21l47 13l6 30q29 140 30 253l1 56l-30 9v20l31 -5v6q0 121 -24 265l-3 18l-16 4q-8 2 -20 6t-28 8l1 21l58 -9l-1 5q-2 9 -4.5 22.5t-6.5 30.5l136 -26q0 -5 1 -13.5
t1 -11.5l1 -18l21 -1q168 -8 356 47l-14 -97q-83 -12 -159 -12q-32 0 -73 3t-91 10l-38 5v-33q0 -131 -15 -238l-1 -4h5q18 -2 35.5 -3t34.5 -1q100 0 260 46l-13 -92q-43 -5 -73.5 -8t-47.5 -3q-87 0 -188 25l-17 4l-1 -4q-20 -130 -63 -272l-10 -32l8 2q145 37 286 37
q43 0 85 -3t83 -10z" />
    <glyph glyph-name="afii10024" unicode="&#x416;" horiz-adv-x="1056" 
d="M1016 91l-71 -91q-61 44 -114 129q-73 115 -76 233l-1 37q-3 125 72 258q56 99 119 142l71 -91q-57 -35 -98.5 -67t-67.5 -60q-71 -77 -80 -162l-2 -20l2 -19q9 -85 80 -162q26 -28 67.5 -60t98.5 -67zM111 1l-71 91q116 74 166 127q64 67 79 162l3 19l-3 20
q-14 91 -79 162q-50 53 -166 127l71 91q62 -44 115 -129q75 -120 75 -234v-1l29 -9q60 -19 134 -24l41 -3v7q0 -8 -3 50q-1 12 -1.5 24t-0.5 25q0 72 9 128l104 21q-16 -52 -27 -102t-16 -99l-6 -55h19q66 0 170 19l1 -19q-23 -7 -46.5 -13t-46.5 -10q-73 -14 -93 -14h-6
l-2 -42q-2 -40 1.5 -88.5t11.5 -104.5h-19q-28 102 -42 207l-3 25l-8 -1q-21 -3 -45 -3q-48 0 -148 17l-7 2v-10q0 -113 -76 -234q-54 -87 -114 -129z" />
    <glyph glyph-name="afii10025" unicode="&#x417;" horiz-adv-x="522" 
d="M53 0l-13 88q142 -3 210 14q86 23 125 90l11 19l-43 62q-28 41 -51 68.5t-40 42.5q-54 48 -121 56l4 15l22 9q70 28 110 85q5 8 12.5 21t16.5 32q7 14 17.5 37t24.5 55l2 5l-12 8q-99 66 -211 66q-13 0 -28 -1t-31 -3l3 17q35 7 67.5 10.5t63.5 3.5q150 0 290 -80
l-61 -80q-14 -19 -31.5 -43t-38.5 -53q-47 -50 -139 -82l-26 -9l15 -1q73 -4 137 -52l105 -97q-5 -221 -237 -278q-26 -7 -153 -25z" />
    <glyph glyph-name="afii10026" unicode="&#x418;" horiz-adv-x="700" 
d="M579 0l-29 1q-25 106 -37 210.5t-12 207.5q0 49 3 95q1 15 3 37.5t5 51.5l1 6l-3 -8q-68 -180 -180 -367q-42 -70 -79 -121.5t-69 -84.5v0v0l-130 32q-12 359 149 740l28 -4q-73 -240 -73 -471q0 -38 1.5 -73.5t5.5 -69.5l2 -19l33 34q90 93 169 226q29 49 61 110t67 135
l42 88l134 8q-103 -282 -103 -570q0 -42 3 -90.5t8 -103.5z" />
    <glyph glyph-name="afii10027" unicode="&#x419;" horiz-adv-x="699" 
d="M572 0l-28 1q-24 110 -36.5 214t-12.5 203q0 94 12 184v5l-3 -8q-25 -76 -69.5 -168t-108.5 -199q-41 -67 -78 -118.5t-71 -85.5v0v0l-130 31q-7 181 30.5 365t117.5 375l29 -4q-73 -243 -73 -471q0 -18 1.5 -54t5.5 -89l2 -17l32 33q137 139 297 469l43 87l132 9
q-103 -284 -103 -569q0 -47 3 -95t8 -98zM460 873q-126 0 -198 81l48 63q99 -105 194 -105q57 0 130 41l-1 -18q-83 -62 -173 -62z" />
    <glyph glyph-name="afii10028" unicode="&#x41a;" horiz-adv-x="646" 
d="M70 0l-30 4q65 239 65 462q0 153 -32 334l135 -31q8 -143 -12 -295l-6 -45l7 10q138 196 334 323l75 -66q-187 -88 -319 -214l-21 -20l18 -42q82 -192 276 -362l-82 -39q-160 184 -223 405l-6 21l-6 -6q-25 -25 -42 -45l-22 -26l-11 -55q-14 -67 -38.5 -145t-59.5 -168z
" />
    <glyph glyph-name="afii10029" unicode="&#x41b;" horiz-adv-x="687" 
d="M68 0l-28 10q32 414 243 790l101 -24q-9 -11 -17 -22t-15 -22l-20 -30l9 -34q96 -364 306 -626l-100 -27q-79 131 -120 219q-83 178 -117 381l-7 40l-9 -15q-154 -256 -226 -640z" />
    <glyph glyph-name="afii10030" unicode="&#x41c;" horiz-adv-x="1128" 
d="M178 0l-138 26q222 330 272 654l4 26l-21 31q-13 19 -27 36l84 21q162 -277 199 -539l3 -21l5 29q47 270 207 537l84 -23q-5 -6 -12 -15t-16 -21l-12 -17l6 -34q60 -336 272 -655l-138 -25q-141 284 -171 629l-3 35l-5 -8q-125 -198 -186 -447l-19 -76l1 -5l-24 -9
q-64 304 -175 493l-17 29l-2 -22q-32 -346 -171 -629z" />
    <glyph glyph-name="afii10031" unicode="&#x41d;" horiz-adv-x="832" 
d="M200 0l-33 1q24 138 24 253q0 64 -3 91l-3 27l-17 2q-48 5 -79.5 11t-47.5 12l-1 28q45 -7 93 -9l48 -2l-3 26q-15 134 -81 360l110 -12q41 -137 41 -325v-51h70q88 0 186 19l68 13v19q0 187 41 325l110 12q-29 -96 -47.5 -174t-26.5 -138l-4 -28h1q25 7 61 18t85 26
l-6 -97q-48 -19 -137 -31l-14 -2l-3 -29q-3 -29 -3 -92q0 -114 24 -252l-33 -1q-47 115 -47 346v22l-31 -3q-26 -2 -59.5 -3.5t-73.5 -0.5q-29 0 -65.5 1.5t-79.5 3.5l-17 1v-21q0 -232 -47 -346z" />
    <glyph glyph-name="afii10032" unicode="&#x41e;" horiz-adv-x="592" 
d="M77 0l6 70q4 1 12 2.5t19 3.5l7 1l-6 17q-75 213 -75 462q0 33 3 79.5t8 107.5v0v0v0l116 -6q172 -9 350 63l-4 -70l-12 -3q-3 -1 -7.5 -2t-11.5 -3l-3 -1l10 -30q63 -189 63 -397q0 -25 -4.5 -83.5t-12.5 -152.5l-2 -22h-1l-56 4q-35 2 -64.5 3.5t-53.5 1.5
q-149 0 -281 -45zM415 84l32 -6l2 10q37 179 37 318q0 129 -27 257l-11 52l-5 -2q-43 -10 -86 -14.5t-86 -4.5q-27 0 -52 1.5t-48 5.5l-13 2l-3 -16q-5 -27 -12.5 -67t-15.5 -92q-9 -76 -9 -148q0 -98 29 -264l6 -33l21 4q48 8 113 8q34 0 65.5 -3t62.5 -8z" />
    <glyph glyph-name="afii10033" unicode="&#x41f;" horiz-adv-x="817" 
d="M159 0h-28q27 186 27 341q0 188 -42 356l-3 12l-12 3q-10 2 -25 6t-36 9v27l64 -10l-1 4q-1 2 -4 14.5t-10 35.5l98 -11q1 -8 3 -21t5 -31l1 -1l22 -2q79 -7 148.5 -7.5t130.5 6.5l55 6l8 52l98 11q-2 -8 -6 -21l-9 -29l42 8q19 4 41.5 10t50.5 14l-10 -90
q-60 -11 -112 -15l-29 -3l-5 -25q-29 -151 -29 -298q0 -76 7.5 -163.5t21.5 -185.5h-28q-63 231 -63 468q0 56 3 105.5t10 92.5v2l-10 -1q-63 -6 -161 1q-96 6 -152 18l-19 4l3 -26q7 -56 10 -109.5t3 -103.5q0 -239 -58 -453z" />
    <glyph glyph-name="afii10034" unicode="&#x420;" horiz-adv-x="533" 
d="M144 1l-30 -1q8 81 12.5 146.5t4.5 115.5q0 51 -6 123l-4 48q-14 158 -81 347h2l6 13q19 4 39 5.5t40 1.5q138 0 250 -82q96 -69 116 -146q-26 -54 -96 -103q-88 -61 -193 -70l-11 -1l-1 -34q-4 -172 -48 -363zM193 466v-37l26 6q136 31 187 134l4 8l-10 22
q-59 131 -227 161l-11 2q31 -146 31 -296z" />
    <glyph glyph-name="afii10035" unicode="&#x421;" horiz-adv-x="587" 
d="M68 0l7 72l26 5l-4 13q-57 184 -57 416q0 99 18 237l3 23l1 21q134 -24 234 -24q133 0 251 37l-11 -72q-55 -8 -98.5 -12t-75.5 -4q-86 0 -180 20l-9 2l-7 -29q-54 -223 -54 -375q0 -103 18 -215l5 -31l11 2q32 5 66 8t69 3q131 0 258 -40v-21q-120 9 -182 9
q-154 0 -289 -45z" />
    <glyph glyph-name="afii10036" unicode="&#x422;" horiz-adv-x="724" 
d="M422 8l-127 -8q100 273 100 527q0 34 -1 61.5t-3 48.5l-5 52h-41q-141 0 -304 38l-1 23q118 -15 227 -15q227 0 417 65l-6 -80q-47 -10 -108.5 -17t-136.5 -12l-15 -1l6 -28q34 -155 34 -328q0 -162 -36 -326z" />
    <glyph glyph-name="afii10037" unicode="&#x423;" horiz-adv-x="560" 
d="M67 0l-27 15q137 173 236 356l2 2l-23 29q-131 165 -181 358l67 40q27 -213 125 -375l21 -34l15 29q90 174 132 367l86 -63q-151 -421 -453 -724z" />
    <glyph glyph-name="afii10038" unicode="&#x424;" horiz-adv-x="736" 
d="M391 0h-29q-22 79 -35 150.5t-18 136.5l-6 86l-8 1q-41 5 -72.5 9t-52.5 8q-71 13 -130 27v23q134 -21 230 -21h31l-1 38q-3 123 9 209l1 7h-26q-85 0 -192 19l-3 6l8 -45q9 -51 9 -108q0 -25 -3 -53t-8 -60l-55 8q30 91 30 182q0 26 -2 53.5t-6 55.5l-6 42h1l59 -16
q91 -23 184 -29l17 -1l1 8q2 13 4 26.5t4 26.5l98 11q-2 -8 -6 -21t-8 -29l-6 -26l58 1q49 1 107 7t126 16l1 -23q-32 -102 -32 -190q0 -30 3 -61l1 -4l9 -80l-19 -3q-146 -23 -271 -18l-25 1v-52q0 -64 7.5 -143.5t21.5 -174.5zM366 483l-3 -62l65 4q43 2 82.5 8.5
t76.5 16.5l59 16l-2 13q-4 19 -8 46.5t-9 62.5q-6 56 -3 92l2 28l-34 -8q-48 -10 -188 -24l-11 -1l-6 -27q-17 -75 -21 -165z" />
    <glyph glyph-name="afii10039" unicode="&#x425;" horiz-adv-x="663" 
d="M67 0l-27 16q129 161 185 264l41 73l-12 20q-53 88 -96 183t-77 197l26 17q41 -92 79 -163t72 -122l44 -66l4 8q47 94 80.5 187.5t53.5 185.5l88 -64q-17 -49 -36 -95.5t-41 -91.5q-16 -34 -39 -76t-53 -93l-14 -24l7 -9q143 -183 271 -290l-97 -49q-58 61 -110 126.5
t-98 136.5l-14 21l-12 -18q-49 -73 -105 -141.5t-120 -132.5z" />
    <glyph glyph-name="afii10040" unicode="&#x426;" horiz-adv-x="796" 
d="M548 -355l-70 70q133 133 188 291l16 45l-25 4l-60 6l-1 -1q-2 -9 -9 -19l-9 -17h-31l14 41l-75 3q-150 6 -307 -30l-37 -9l-12 -29l-31 3l4 16l-17 -4q-8 -3 -20 -6t-26 -9l16 134q14 5 23.5 7.5t15.5 4.5l34 5l7 40q8 45 12 97t4 109q0 85 -12 180.5t-35 202.5l133 -25
q13 -55 13 -138q0 -131 -15.5 -242.5t-49.5 -201.5l-6 -16h5q13 1 29.5 2t31.5 1q129 0 295 -36l35 -7l2 1q33 106 49 218t16 230q0 51 -4.5 109t-11.5 125l125 -19q4 -24 4 -67q0 -64 -12 -142t-35 -172q-19 -76 -42 -148t-49 -142l-2 -2l13 -2q7 -2 16 -4.5t21 -6.5l28 -8
l12 37l14 -14q0 -16 -1 -17l-3 -13l10 -3l7.5 -2.5t12.5 -4.5l-1 -31l-35 6l-7 -27q-41 -152 -79 -245t-76 -128z" />
    <glyph glyph-name="afii10041" unicode="&#x427;" horiz-adv-x="489" 
d="M371 0l-97 1q90 207 111 399l3 28h-41q-150 0 -290 -75v0v0l-17 2q32 128 32 243q0 99 -21 202l76 -16q1 -16 1.5 -32t0.5 -33q0 -142 -47 -292v-2l25 7q86 23 159 23q20 0 43 -1.5t50 -5.5l31 -4l7 58q5 43 7.5 94t2.5 112v44.5t-1 45.5l27 -3q8 -59 12 -120t4 -123
q0 -282 -78 -552z" />
    <glyph glyph-name="afii10042" unicode="&#x428;" horiz-adv-x="1038" 
d="M75 0l20 127l9 86q6 57 6 128q0 216 -70 459l134 -18q18 -118 18 -233q0 -171 -48 -395l-3 -14l15 3q22 5 55 9t77 8q63 6 121 6q10 0 29 -1t29 -1h2v5q5 41 7.5 79.5t2.5 73.5q0 116 -44 354l118 -20q0 -17 0.5 -36.5t1.5 -42.5v-25q0 -165 -44 -352l-9 -37h9
q132 0 290 -34l29 -6l7 74q4 37 5.5 69.5t1.5 60.5q0 215 -70 458l134 -18q18 -121 18 -234q0 -195 -49 -395l-6 -25l60 -15q3 -1 10 -2.5t18 -5.5l39 -13l-1 -38q-18 5 -45 9q-10 2 -26 4.5t-38 5.5l-30 3l-16 -55l-29 1l9 59l-46 5q-110 12 -199 12q-259 0 -502 -83z" />
    <glyph glyph-name="afii10043" unicode="&#x429;" horiz-adv-x="1038" 
d="M788 -349l-70 70q63 65 111 138t79 155l14 40l-35 6l-50 6l-18 -60l-28 2l8 62l-26 3q-117 12 -195 12q-136 0 -261 -20.5t-243 -64.5l21 128l10 87q4 23 5 55t1 72q0 106 -17.5 221t-53.5 237l133 -17q19 -111 19 -234q0 -73 -12 -173t-36 -220l-3 -14l14 3
q120 21 313 21h1v5q5 40 8 77.5t3 73.5q0 64 -11 153t-35 202l119 -21v-172q0 -47 -10.5 -118t-32.5 -164l-9 -38h9q43 0 114.5 -8.5t174.5 -26.5l9 -1l7 71q3 25 4.5 59t1.5 69q0 207 -69 458l134 -18q18 -120 18 -234q0 -84 -12.5 -182t-35.5 -210l-5 -22l14 -4
q11 -4 28 -8t37 -9l6 -3l13 39l15 -16q0 -15 -2 -17l-3 -11l39 -11v-38l-47 8l-7 -23q-16 -66 -32 -119t-31 -90q-21 -61 -45.5 -101.5t-47.5 -64.5z" />
    <glyph glyph-name="afii10044" unicode="&#x42a;" horiz-adv-x="795" 
d="M370 3h-3l-80 -3q29 80 49.5 145t33.5 114l12 47l10 48q30 144 30 268q0 22 -1.5 50t-3.5 62l-2 27l-42 -13q-126 -40 -240 -40q-12 0 -22.5 0.5t-19.5 1.5l-51 90q137 -35 251 -35q25 0 49 1.5t47 5.5l26 4l-1 17l32 -1q26 -81 26 -265q0 -46 -1.5 -87t-5.5 -77v-7
l15 -2q129 -16 227 -132l17 -20l33 -44l-17 -22l-16 -20q-91 -115 -289 -115q-11 0 -32 1t-31 1zM412 50l-5 -15l29 4q60 9 115 29q64 26 127 89l19 19q-49 49 -82 69q-54 34 -125 47l-32 6l-5 -46q-7 -58 -17 -108.5t-24 -93.5z" />
    <glyph glyph-name="afii10045" unicode="&#x42b;" horiz-adv-x="688" 
d="M123 9h-3l-80 -9q24 83 40.5 149t24.5 114l9 49l7 48q7 47 10 93t3 90q0 122 -24 256l32 1q11 -26 19.5 -67.5t15.5 -99.5q7 -63 11 -127.5t3 -131.5v-8h15q125 0 236 -115l18 -19l35 -42l-14 -24l-15 -20q-63 -87 -178 -118q-57 -16 -165 -19zM579 7l-29 1
q-48 219 -48 433q0 185 36 351l110 3q-85 -240 -85 -514q0 -60 4 -128.5t12 -145.5zM162 58l-4 -15l28 6q77 20 113 37q62 31 120 98l17 19v1q-26 22 -47.5 37.5t-38.5 25.5q-57 29 -127 38l-33 3l-2 -45q-2 -61 -8.5 -112.5t-17.5 -92.5z" />
    <glyph glyph-name="afii10046" unicode="&#x42c;" horiz-adv-x="536" 
d="M110 799l32 1q21 -50 35 -167q7 -62 10.5 -127t3.5 -132v-7l16 -1q134 -8 235 -115l18 -19l36 -42l-15 -24l-15 -20q-66 -87 -178 -118q-66 -19 -165 -19h-3l-80 -9q22 76 38.5 142t26.5 121l9 49l7 48q7 48 10.5 93t3.5 86q0 126 -25 260zM223 305l-33 3l-2 -45
q-6 -123 -26 -205l-4 -15l28 6q71 17 113 37q66 32 120 98l17 20q-90 90 -213 101z" />
    <glyph glyph-name="afii10047" unicode="&#x42d;" horiz-adv-x="633" 
d="M213 0q-115 0 -173 16l28 105q192 -79 343 -79h18t18 1l30 2l8 26q36 117 36 251v42l-52 7q-67 9 -127 9q-80 0 -159 -15l-27 86q49 4 137 -6q56 -7 109.5 -17.5t103.5 -26.5l13 -4v10q0 179 -102 317l-14 19h-25q-103 0 -274 -60l-20 109q23 4 50 6t58 2q150 0 308 -37
l35 -8h6q52 -147 52 -299q0 -175 -68 -364l-23 -63l-41 -8q-108 -21 -248 -21z" />
    <glyph glyph-name="afii10048" unicode="&#x42e;" horiz-adv-x="986" 
d="M820 0l-29 3l12 57l-20 -4q-119 -24 -189 -21l-24 1l4 -19l-29 -2q-6 12 -9 21l-1 3l-26 4q-4 1 -9.5 2.5t-13.5 3.5l-10 83l35 -10l-5 20q-11 48 -20 99t-15 104l-5 47l-4 1q-108 27 -183 27q-17 0 -34.5 -1t-36.5 -3l-37 -4l-1 -3q-12 -91 -39 -197q-16 -64 -31 -111.5
t-31 -78.5l-29 3q25 100 37 199.5t12 197.5q0 190 -43 378l132 -26q7 -31 10.5 -65t3.5 -72q0 -45 -3 -88t-10 -83l-4 -25q126 33 220 33h20h8.5t8.5 -1l27 -3l-2 27q-2 34 -3.5 62.5t-1.5 53.5q0 17 1.5 41t5.5 55l1 9l-5 1q-18 3 -29 10l-10 71l67 -22l85 14l-7 -34
l59 -10q72 -12 131 -8l53 3l-7 35l98 -19l1 -3l49 10l1 -26q-7 -4 -15.5 -7.5t-19.5 -5.5l-9 -3l4 -32q4 -32 6 -62.5t2 -59.5q0 -53 -3.5 -107t-10.5 -109q-8 -60 -42 -227l-6 -29l3 1q23 3 54 9v-18q-12 -5 -24 -9.5t-25 -7.5l-16 -4l-5 -19q-4 -13 -9 -25.5t-10 -24.5z
M750 90q15 0 53 3l8 1v3q33 145 33 297q0 70 -7.5 143t-21.5 150l-4 21l-20 -2q-71 -7 -128.5 -8t-103.5 4l-9 1v-1q-28 -128 -28 -278q0 -34 2 -73.5t6 -85.5q11 -111 24 -154l34 -7q76 -15 162 -14z" />
    <glyph glyph-name="afii10049" unicode="&#x42f;" horiz-adv-x="606" 
d="M169 0l-129 4q240 197 359 436l-34 4q-96 11 -194 110l-18 18l-35 41l15 23l14 20q59 85 176 116q67 19 161 19h3l79 9q-23 -83 -39.5 -147.5t-24.5 -111.5l-9 -48l-7 -47q-12 -81 -12 -180q0 -58 6 -121t17 -131l-32 -1q-17 44 -30 137q-7 50 -11 104t-5 111l-1 57
l-3 -8q-95 -254 -246 -414zM386 500l33 -3l2 44q6 134 25 202l4 15l-27 -7q-79 -21 -111 -36q-59 -29 -119 -96l-17 -19q89 -89 210 -100z" />
    <glyph glyph-name="afii10065" unicode="&#x430;" horiz-adv-x="816" 
d="M198 0l-30 9q-5 66 36 248l6 27h-1q-90 0 -168 27l-1 28q41 -5 86 -8.5t94 -4.5v0l13 48q80 294 175 426l104 -23q-7 -10 -14.5 -22t-17.5 -26l-14 -22l1 -4q32 -130 48 -179q14 -46 29.5 -85.5t32.5 -71.5l2 -5h3q84 18 188 53l-6 -94q-50 -19 -132 -30l-15 -2v-1
q35 -70 159 -249l-105 -24q-68 95 -117 226l-15 40l-12 -1q-24 -2 -50 -3t-54 -1q-42 0 -70.5 0.5t-43.5 1.5l-45 3l-11 -36q-16 -53 -30 -114.5t-25 -130.5zM308 403l-29 -77h31q94 0 180 18l24 5l-22 68q-10 28 -18 58.5t-16 63.5q-4 19 -9 47t-13 66l-1 5l-14 -23
q-70 -118 -113 -231z" />
    <glyph glyph-name="afii10066" unicode="&#x431;" horiz-adv-x="619" 
d="M278 0q-50 0 -94 3q-14 1 -35 3t-49 5l-11 2h-49q79 204 79 351v14l-5 1q-10 2 -21 5t-22 7l-1 21l50 -7l2 41q2 38 -1.5 101t-11.5 151l-4 42l-33 10l1 19l30 -5l-3 36l32 -2l7 -40l55 -6q19 -2 40 -3t45 -1q133 0 287 45l-11 -89q-42 -5 -78 -8t-67 -3q-133 0 -254 33
l-11 3l1 -4q10 -47 24 -152q4 -34 6 -70.5t4 -77.5l1 -28h5q31 -4 59 -6t53 -2q118 0 235 47v0v0l12 1q17 -73 25.5 -146t8.5 -146q0 -61 -6 -116v0q-157 -29 -295 -29zM436 47h40l7 28q4 13 9.5 34.5t12.5 52.5q5 19 11 49t14 73l4 36l-11 -2q-5 -1 -16.5 -1.5t-28.5 -0.5
q-115 0 -284 43l-12 3v-38q0 -113 -17 -221l-1 -6l56 -15q134 -35 216 -35z" />
    <glyph glyph-name="afii10067" unicode="&#x432;" horiz-adv-x="509" 
d="M110 0l-29 1q14 88 21.5 162.5t7.5 136.5q0 54 -3 92l-8 100q-5 68 -19.5 145t-39.5 163v0q40 -4 127 -27l4 -1h1l33 -11q179 -59 249 -173l15 -24l-16 -19q-4 -5 -9.5 -11.5t-12.5 -14.5l-15 -16l-7 -7q-91 -91 -175 -112l-4 -1l17 -8q131 -62 183 -146l3 -4l10 -16
l-4 -4q-15 -21 -22 -28l-23 -25v-1q-63 -75 -154 -116q-34 -16 -66.5 -24.5t-63.5 -10.5zM134 90l-8 -30l24 2q140 12 230 105l4 5l-9 19q-58 123 -187 178l-7 3h-1l-3 -37q-5 -60 -16 -121.5t-27 -123.5zM185 429l27 4q97 13 163 69l29 24l-10 20q-70 138 -198 190l-20 8
l3 -25q5 -46 8 -90t3 -86q0 -20 -1.5 -48.5t-3.5 -65.5z" />
    <glyph glyph-name="afii10068" unicode="&#x433;" horiz-adv-x="631" 
d="M98 0l-30 2q25 119 37 221t12 185q0 139 -28 270l-8 39l-41 11l1 21l34 -5l-11 41l122 15q1 -14 6 -55l1 -15l49 -2q157 -6 349 46l-13 -95q-45 -5 -84.5 -8t-73.5 -3q-87 0 -199 18l-25 4v-14q0 -13 1.5 -39.5t1.5 -39.5q0 -285 -101 -597z" />
    <glyph glyph-name="afii10069" unicode="&#x434;" horiz-adv-x="904" 
d="M40 0l16 136q9 1 22.5 3t32.5 4l9 1l6 23q61 234 263 537l2 3l33 44q11 14 20.5 26.5t17.5 22.5l27 -12q207 -291 276 -643l8 -41h2l32 -7q23 -5 57 -15l-1 -29q-17 2 -42 5.5t-59 7.5h-5l-5 -2l-1 3l-90 7q-25 2 -53.5 3t-59.5 1q-235 0 -508 -78zM689 121l48 -9l-14 43
q-83 254 -296 512l-5 6l-17 -32q-56 -107 -96.5 -228.5t-63.5 -258.5v0h20q13 0 39 1t39 1q153 0 346 -35z" />
    <glyph glyph-name="afii10070" unicode="&#x435;" horiz-adv-x="649" 
d="M596 97l13 -97q-172 49 -327 49q-23 0 -47.5 -1.5t-50.5 -3.5l-61 -6l-12 -35l-30 3l6 26l-40 -6l-1 21l47 13l6 30q29 140 30 253l1 56l-30 9v20l31 -5v6q0 121 -24 265l-3 18l-16 4q-8 2 -20 6t-28 8l1 21l58 -9l-1 5q-2 9 -4.5 22.5t-6.5 30.5l136 -26q0 -5 1 -13.5
t1 -11.5l1 -18l21 -1q168 -8 356 47l-14 -97q-83 -12 -159 -12q-32 0 -73 3t-91 10l-38 5v-33q0 -131 -15 -238l-1 -4h5q18 -2 35.5 -3t34.5 -1q100 0 260 46l-13 -92q-43 -5 -73.5 -8t-47.5 -3q-87 0 -188 25l-17 4l-1 -4q-20 -130 -63 -272l-10 -32l8 2q145 37 286 37
q43 0 85 -3t83 -10z" />
    <glyph glyph-name="afii10072" unicode="&#x436;" horiz-adv-x="1056" 
d="M1016 91l-71 -91q-61 44 -114 129q-73 115 -76 233l-1 37q-3 125 72 258q56 99 119 142l71 -91q-57 -35 -98.5 -67t-67.5 -60q-71 -77 -80 -162l-2 -20l2 -19q9 -85 80 -162q26 -28 67.5 -60t98.5 -67zM111 1l-71 91q116 74 166 127q64 67 79 162l3 19l-3 20
q-14 91 -79 162q-50 53 -166 127l71 91q62 -44 115 -129q75 -120 75 -234v-1l29 -9q60 -19 134 -24l41 -3v7q0 -8 -3 50q-1 12 -1.5 24t-0.5 25q0 72 9 128l104 21q-16 -52 -27 -102t-16 -99l-6 -55h19q66 0 170 19l1 -19q-23 -7 -46.5 -13t-46.5 -10q-73 -14 -93 -14h-6
l-2 -42q-2 -40 1.5 -88.5t11.5 -104.5h-19q-28 102 -42 207l-3 25l-8 -1q-21 -3 -45 -3q-48 0 -148 17l-7 2v-10q0 -113 -76 -234q-54 -87 -114 -129z" />
    <glyph glyph-name="afii10073" unicode="&#x437;" horiz-adv-x="522" 
d="M53 0l-13 88q142 -3 210 14q86 23 125 90l11 19l-43 62q-28 41 -51 68.5t-40 42.5q-54 48 -121 56l4 15l22 9q70 28 110 85q5 8 12.5 21t16.5 32q7 14 17.5 37t24.5 55l2 5l-12 8q-99 66 -211 66q-13 0 -28 -1t-31 -3l3 17q35 7 67.5 10.5t63.5 3.5q150 0 290 -80
l-61 -80q-14 -19 -31.5 -43t-38.5 -53q-47 -50 -139 -82l-26 -9l15 -1q73 -4 137 -52l105 -97q-5 -221 -237 -278q-26 -7 -153 -25z" />
    <glyph glyph-name="afii10074" unicode="&#x438;" horiz-adv-x="700" 
d="M579 0l-29 1q-25 106 -37 210.5t-12 207.5q0 49 3 95q1 15 3 37.5t5 51.5l1 6l-3 -8q-68 -180 -180 -367q-42 -70 -79 -121.5t-69 -84.5v0v0l-130 32q-12 359 149 740l28 -4q-73 -240 -73 -471q0 -38 1.5 -73.5t5.5 -69.5l2 -19l33 34q90 93 169 226q29 49 61 110t67 135
l42 88l134 8q-103 -282 -103 -570q0 -42 3 -90.5t8 -103.5z" />
    <glyph glyph-name="afii10075" unicode="&#x439;" horiz-adv-x="699" 
d="M572 0l-28 1q-24 110 -36.5 214t-12.5 203q0 94 12 184v5l-3 -8q-25 -76 -69.5 -168t-108.5 -199q-41 -67 -78 -118.5t-71 -85.5v0v0l-130 31q-7 181 30.5 365t117.5 375l29 -4q-73 -243 -73 -471q0 -18 1.5 -54t5.5 -89l2 -17l32 33q137 139 297 469l43 87l132 9
q-103 -284 -103 -569q0 -47 3 -95t8 -98zM460 873q-126 0 -198 81l48 63q99 -105 194 -105q57 0 130 41l-1 -18q-83 -62 -173 -62z" />
    <glyph glyph-name="afii10076" unicode="&#x43a;" horiz-adv-x="646" 
d="M70 0l-30 4q65 239 65 462q0 153 -32 334l135 -31q8 -143 -12 -295l-6 -45l7 10q138 196 334 323l75 -66q-187 -88 -319 -214l-21 -20l18 -42q82 -192 276 -362l-82 -39q-160 184 -223 405l-6 21l-6 -6q-25 -25 -42 -45l-22 -26l-11 -55q-14 -67 -38.5 -145t-59.5 -168z
" />
    <glyph glyph-name="afii10077" unicode="&#x43b;" horiz-adv-x="687" 
d="M68 0l-28 10q32 414 243 790l101 -24q-9 -11 -17 -22t-15 -22l-20 -30l9 -34q96 -364 306 -626l-100 -27q-79 131 -120 219q-83 178 -117 381l-7 40l-9 -15q-154 -256 -226 -640z" />
    <glyph glyph-name="afii10078" unicode="&#x43c;" horiz-adv-x="1128" 
d="M178 0l-138 26q222 330 272 654l4 26l-21 31q-13 19 -27 36l84 21q162 -277 199 -539l3 -21l5 29q47 270 207 537l84 -23q-5 -6 -12 -15t-16 -21l-12 -17l6 -34q60 -336 272 -655l-138 -25q-141 284 -171 629l-3 35l-5 -8q-125 -198 -186 -447l-19 -76l1 -5l-24 -9
q-64 304 -175 493l-17 29l-2 -22q-32 -346 -171 -629z" />
    <glyph glyph-name="afii10079" unicode="&#x43d;" horiz-adv-x="832" 
d="M200 0l-33 1q24 138 24 253q0 64 -3 91l-3 27l-17 2q-48 5 -79.5 11t-47.5 12l-1 28q45 -7 93 -9l48 -2l-3 26q-15 134 -81 360l110 -12q41 -137 41 -325v-51h70q88 0 186 19l68 13v19q0 187 41 325l110 12q-29 -96 -47.5 -174t-26.5 -138l-4 -28h1q25 7 61 18t85 26
l-6 -97q-48 -19 -137 -31l-14 -2l-3 -29q-3 -29 -3 -92q0 -114 24 -252l-33 -1q-47 115 -47 346v22l-31 -3q-26 -2 -59.5 -3.5t-73.5 -0.5q-29 0 -65.5 1.5t-79.5 3.5l-17 1v-21q0 -232 -47 -346z" />
    <glyph glyph-name="afii10080" unicode="&#x43e;" horiz-adv-x="592" 
d="M77 0l6 70q4 1 12 2.5t19 3.5l7 1l-6 17q-75 213 -75 462q0 33 3 79.5t8 107.5v0v0v0l116 -6q172 -9 350 63l-4 -70l-12 -3q-3 -1 -7.5 -2t-11.5 -3l-3 -1l10 -30q63 -189 63 -397q0 -25 -4.5 -83.5t-12.5 -152.5l-2 -22h-1l-56 4q-35 2 -64.5 3.5t-53.5 1.5
q-149 0 -281 -45zM415 84l32 -6l2 10q37 179 37 318q0 129 -27 257l-11 52l-5 -2q-43 -10 -86 -14.5t-86 -4.5q-27 0 -52 1.5t-48 5.5l-13 2l-3 -16q-5 -27 -12.5 -67t-15.5 -92q-9 -76 -9 -148q0 -98 29 -264l6 -33l21 4q48 8 113 8q34 0 65.5 -3t62.5 -8z" />
    <glyph glyph-name="afii10081" unicode="&#x43f;" horiz-adv-x="817" 
d="M159 0h-28q27 186 27 341q0 188 -42 356l-3 12l-12 3q-10 2 -25 6t-36 9v27l64 -10l-1 4q-1 2 -4 14.5t-10 35.5l98 -11q1 -8 3 -21t5 -31l1 -1l22 -2q79 -7 148.5 -7.5t130.5 6.5l55 6l8 52l98 11q-2 -8 -6 -21l-9 -29l42 8q19 4 41.5 10t50.5 14l-10 -90
q-60 -11 -112 -15l-29 -3l-5 -25q-29 -151 -29 -298q0 -76 7.5 -163.5t21.5 -185.5h-28q-63 231 -63 468q0 56 3 105.5t10 92.5v2l-10 -1q-63 -6 -161 1q-96 6 -152 18l-19 4l3 -26q7 -56 10 -109.5t3 -103.5q0 -239 -58 -453z" />
    <glyph glyph-name="afii10082" unicode="&#x440;" horiz-adv-x="533" 
d="M144 1l-30 -1q8 81 12.5 146.5t4.5 115.5q0 51 -6 123l-4 48q-14 158 -81 347h2l6 13q19 4 39 5.5t40 1.5q138 0 250 -82q96 -69 116 -146q-26 -54 -96 -103q-88 -61 -193 -70l-11 -1l-1 -34q-4 -172 -48 -363zM193 466v-37l26 6q136 31 187 134l4 8l-10 22
q-59 131 -227 161l-11 2q31 -146 31 -296z" />
    <glyph glyph-name="afii10083" unicode="&#x441;" horiz-adv-x="587" 
d="M68 0l7 72l26 5l-4 13q-57 184 -57 416q0 99 18 237l3 23l1 21q134 -24 234 -24q133 0 251 37l-11 -72q-55 -8 -98.5 -12t-75.5 -4q-86 0 -180 20l-9 2l-7 -29q-54 -223 -54 -375q0 -103 18 -215l5 -31l11 2q32 5 66 8t69 3q131 0 258 -40v-21q-120 9 -182 9
q-154 0 -289 -45z" />
    <glyph glyph-name="afii10084" unicode="&#x442;" horiz-adv-x="724" 
d="M422 8l-127 -8q100 273 100 527q0 34 -1 61.5t-3 48.5l-5 52h-41q-141 0 -304 38l-1 23q118 -15 227 -15q227 0 417 65l-6 -80q-47 -10 -108.5 -17t-136.5 -12l-15 -1l6 -28q34 -155 34 -328q0 -162 -36 -326z" />
    <glyph glyph-name="afii10085" unicode="&#x443;" horiz-adv-x="560" 
d="M67 0l-27 15q137 173 236 356l2 2l-23 29q-131 165 -181 358l67 40q27 -213 125 -375l21 -34l15 29q90 174 132 367l86 -63q-151 -421 -453 -724z" />
    <glyph glyph-name="afii10086" unicode="&#x444;" horiz-adv-x="736" 
d="M391 0h-29q-22 79 -35 150.5t-18 136.5l-6 86l-8 1q-41 5 -72.5 9t-52.5 8q-71 13 -130 27v23q134 -21 230 -21h31l-1 38q-3 123 9 209l1 7h-26q-85 0 -192 19l-3 6l8 -45q9 -51 9 -108q0 -25 -3 -53t-8 -60l-55 8q30 91 30 182q0 26 -2 53.5t-6 55.5l-6 42h1l59 -16
q91 -23 184 -29l17 -1l1 8q2 13 4 26.5t4 26.5l98 11q-2 -8 -6 -21t-8 -29l-6 -26l58 1q49 1 107 7t126 16l1 -23q-32 -102 -32 -190q0 -30 3 -61l1 -4l9 -80l-19 -3q-146 -23 -271 -18l-25 1v-52q0 -64 7.5 -143.5t21.5 -174.5zM366 483l-3 -62l65 4q43 2 82.5 8.5
t76.5 16.5l59 16l-2 13q-4 19 -8 46.5t-9 62.5q-6 56 -3 92l2 28l-34 -8q-48 -10 -188 -24l-11 -1l-6 -27q-17 -75 -21 -165z" />
    <glyph glyph-name="afii10087" unicode="&#x445;" horiz-adv-x="663" 
d="M67 0l-27 16q129 161 185 264l41 73l-12 20q-53 88 -96 183t-77 197l26 17q41 -92 79 -163t72 -122l44 -66l4 8q47 94 80.5 187.5t53.5 185.5l88 -64q-17 -49 -36 -95.5t-41 -91.5q-16 -34 -39 -76t-53 -93l-14 -24l7 -9q143 -183 271 -290l-97 -49q-58 61 -110 126.5
t-98 136.5l-14 21l-12 -18q-49 -73 -105 -141.5t-120 -132.5z" />
    <glyph glyph-name="afii10088" unicode="&#x446;" horiz-adv-x="796" 
d="M548 -355l-70 70q133 133 188 291l16 45l-25 4l-60 6l-1 -1q-2 -9 -9 -19l-9 -17h-31l14 41l-75 3q-150 6 -307 -30l-37 -9l-12 -29l-31 3l4 16l-17 -4q-8 -3 -20 -6t-26 -9l16 134q14 5 23.5 7.5t15.5 4.5l34 5l7 40q8 45 12 97t4 109q0 85 -12 180.5t-35 202.5l133 -25
q13 -55 13 -138q0 -131 -15.5 -242.5t-49.5 -201.5l-6 -16h5q13 1 29.5 2t31.5 1q129 0 295 -36l35 -7l2 1q33 106 49 218t16 230q0 51 -4.5 109t-11.5 125l125 -19q4 -24 4 -67q0 -64 -12 -142t-35 -172q-19 -76 -42 -148t-49 -142l-2 -2l13 -2q7 -2 16 -4.5t21 -6.5l28 -8
l12 37l14 -14q0 -16 -1 -17l-3 -13l10 -3l7.5 -2.5t12.5 -4.5l-1 -31l-35 6l-7 -27q-41 -152 -79 -245t-76 -128z" />
    <glyph glyph-name="afii10089" unicode="&#x447;" horiz-adv-x="489" 
d="M371 0l-97 1q90 207 111 399l3 28h-41q-150 0 -290 -75v0v0l-17 2q32 128 32 243q0 99 -21 202l76 -16q1 -16 1.5 -32t0.5 -33q0 -142 -47 -292v-2l25 7q86 23 159 23q20 0 43 -1.5t50 -5.5l31 -4l7 58q5 43 7.5 94t2.5 112v44.5t-1 45.5l27 -3q8 -59 12 -120t4 -123
q0 -282 -78 -552z" />
    <glyph glyph-name="afii10090" unicode="&#x448;" horiz-adv-x="1038" 
d="M75 0l20 127l9 86q6 57 6 128q0 216 -70 459l134 -18q18 -118 18 -233q0 -171 -48 -395l-3 -14l15 3q22 5 55 9t77 8q63 6 121 6q10 0 29 -1t29 -1h2v5q5 41 7.5 79.5t2.5 73.5q0 116 -44 354l118 -20q0 -17 0.5 -36.5t1.5 -42.5v-25q0 -165 -44 -352l-9 -37h9
q132 0 290 -34l29 -6l7 74q4 37 5.5 69.5t1.5 60.5q0 215 -70 458l134 -18q18 -121 18 -234q0 -195 -49 -395l-6 -25l60 -15q3 -1 10 -2.5t18 -5.5l39 -13l-1 -38q-18 5 -45 9q-10 2 -26 4.5t-38 5.5l-30 3l-16 -55l-29 1l9 59l-46 5q-110 12 -199 12q-259 0 -502 -83z" />
    <glyph glyph-name="afii10091" unicode="&#x449;" horiz-adv-x="1038" 
d="M788 -349l-70 70q63 65 111 138t79 155l14 40l-35 6l-50 6l-18 -60l-28 2l8 62l-26 3q-117 12 -195 12q-136 0 -261 -20.5t-243 -64.5l21 128l10 87q4 23 5 55t1 72q0 106 -17.5 221t-53.5 237l133 -17q19 -111 19 -234q0 -73 -12 -173t-36 -220l-3 -14l14 3
q120 21 313 21h1v5q5 40 8 77.5t3 73.5q0 64 -11 153t-35 202l119 -21v-172q0 -47 -10.5 -118t-32.5 -164l-9 -38h9q43 0 114.5 -8.5t174.5 -26.5l9 -1l7 71q3 25 4.5 59t1.5 69q0 207 -69 458l134 -18q18 -120 18 -234q0 -84 -12.5 -182t-35.5 -210l-5 -22l14 -4
q11 -4 28 -8t37 -9l6 -3l13 39l15 -16q0 -15 -2 -17l-3 -11l39 -11v-38l-47 8l-7 -23q-16 -66 -32 -119t-31 -90q-21 -61 -45.5 -101.5t-47.5 -64.5z" />
    <glyph glyph-name="afii10092" unicode="&#x44a;" horiz-adv-x="795" 
d="M370 3h-3l-80 -3q29 80 49.5 145t33.5 114l12 47l10 48q30 144 30 268q0 22 -1.5 50t-3.5 62l-2 27l-42 -13q-126 -40 -240 -40q-12 0 -22.5 0.5t-19.5 1.5l-51 90q137 -35 251 -35q25 0 49 1.5t47 5.5l26 4l-1 17l32 -1q26 -81 26 -265q0 -46 -1.5 -87t-5.5 -77v-7
l15 -2q129 -16 227 -132l17 -20l33 -44l-17 -22l-16 -20q-91 -115 -289 -115q-11 0 -32 1t-31 1zM412 50l-5 -15l29 4q60 9 115 29q64 26 127 89l19 19q-49 49 -82 69q-54 34 -125 47l-32 6l-5 -46q-7 -58 -17 -108.5t-24 -93.5z" />
    <glyph glyph-name="afii10093" unicode="&#x44b;" horiz-adv-x="688" 
d="M123 9h-3l-80 -9q24 83 40.5 149t24.5 114l9 49l7 48q7 47 10 93t3 90q0 122 -24 256l32 1q11 -26 19.5 -67.5t15.5 -99.5q7 -63 11 -127.5t3 -131.5v-8h15q125 0 236 -115l18 -19l35 -42l-14 -24l-15 -20q-63 -87 -178 -118q-57 -16 -165 -19zM579 7l-29 1
q-48 219 -48 433q0 185 36 351l110 3q-85 -240 -85 -514q0 -60 4 -128.5t12 -145.5zM162 58l-4 -15l28 6q77 20 113 37q62 31 120 98l17 19v1q-26 22 -47.5 37.5t-38.5 25.5q-57 29 -127 38l-33 3l-2 -45q-2 -61 -8.5 -112.5t-17.5 -92.5z" />
    <glyph glyph-name="afii10094" unicode="&#x44c;" horiz-adv-x="536" 
d="M110 799l32 1q21 -50 35 -167q7 -62 10.5 -127t3.5 -132v-7l16 -1q134 -8 235 -115l18 -19l36 -42l-15 -24l-15 -20q-66 -87 -178 -118q-66 -19 -165 -19h-3l-80 -9q22 76 38.5 142t26.5 121l9 49l7 48q7 48 10.5 93t3.5 86q0 126 -25 260zM223 305l-33 3l-2 -45
q-6 -123 -26 -205l-4 -15l28 6q71 17 113 37q66 32 120 98l17 20q-90 90 -213 101z" />
    <glyph glyph-name="afii10095" unicode="&#x44d;" horiz-adv-x="633" 
d="M213 0q-115 0 -173 16l28 105q192 -79 343 -79h18t18 1l30 2l8 26q36 117 36 251v42l-52 7q-67 9 -127 9q-80 0 -159 -15l-27 86q49 4 137 -6q56 -7 109.5 -17.5t103.5 -26.5l13 -4v10q0 179 -102 317l-14 19h-25q-103 0 -274 -60l-20 109q23 4 50 6t58 2q150 0 308 -37
l35 -8h6q52 -147 52 -299q0 -175 -68 -364l-23 -63l-41 -8q-108 -21 -248 -21z" />
    <glyph glyph-name="afii10096" unicode="&#x44e;" horiz-adv-x="986" 
d="M820 0l-29 3l12 57l-20 -4q-119 -24 -189 -21l-24 1l4 -19l-29 -2q-6 12 -9 21l-1 3l-26 4q-4 1 -9.5 2.5t-13.5 3.5l-10 83l35 -10l-5 20q-11 48 -20 99t-15 104l-5 47l-4 1q-108 27 -183 27q-17 0 -34.5 -1t-36.5 -3l-37 -4l-1 -3q-12 -91 -39 -197q-16 -64 -31 -111.5
t-31 -78.5l-29 3q25 100 37 199.5t12 197.5q0 190 -43 378l132 -26q7 -31 10.5 -65t3.5 -72q0 -45 -3 -88t-10 -83l-4 -25q126 33 220 33h20h8.5t8.5 -1l27 -3l-2 27q-2 34 -3.5 62.5t-1.5 53.5q0 17 1.5 41t5.5 55l1 9l-5 1q-18 3 -29 10l-10 71l67 -22l85 14l-7 -34
l59 -10q72 -12 131 -8l53 3l-7 35l98 -19l1 -3l49 10l1 -26q-7 -4 -15.5 -7.5t-19.5 -5.5l-9 -3l4 -32q4 -32 6 -62.5t2 -59.5q0 -53 -3.5 -107t-10.5 -109q-8 -60 -42 -227l-6 -29l3 1q23 3 54 9v-18q-12 -5 -24 -9.5t-25 -7.5l-16 -4l-5 -19q-4 -13 -9 -25.5t-10 -24.5z
M750 90q15 0 53 3l8 1v3q33 145 33 297q0 70 -7.5 143t-21.5 150l-4 21l-20 -2q-71 -7 -128.5 -8t-103.5 4l-9 1v-1q-28 -128 -28 -278q0 -34 2 -73.5t6 -85.5q11 -111 24 -154l34 -7q76 -15 162 -14z" />
    <glyph glyph-name="afii10097" unicode="&#x44f;" horiz-adv-x="606" 
d="M169 0l-129 4q240 197 359 436l-34 4q-96 11 -194 110l-18 18l-35 41l15 23l14 20q59 85 176 116q67 19 161 19h3l79 9q-23 -83 -39.5 -147.5t-24.5 -111.5l-9 -48l-7 -47q-12 -81 -12 -180q0 -58 6 -121t17 -131l-32 -1q-17 44 -30 137q-7 50 -11 104t-5 111l-1 57
l-3 -8q-95 -254 -246 -414zM386 500l33 -3l2 44q6 134 25 202l4 15l-27 -7q-79 -21 -111 -36q-59 -29 -119 -96l-17 -19q89 -89 210 -100z" />
    <glyph glyph-name="afii10071" unicode="&#x451;" horiz-adv-x="648" 
d="M596 97l12 -97q-169 49 -326 49q-26 0 -49.5 -1t-48.5 -4l-61 -6l-13 -36l-29 4l6 26l-40 -6l-1 21l47 13l6 30q31 143 31 253v56l-31 9l1 20l31 -5v6q0 81 -24 265l-3 18l-16 4q-8 1 -20 5.5t-28 8.5l1 21l58 -9l-1 5q-2 2 -11 53l135 -26q0 -4 1 -10.5t2 -14.5l1 -18
l21 -1q154 -9 355 48l-12 -98q-84 -12 -159 -12q-84 0 -164 12l-40 7l2 -34q2 -60 -2 -119.5t-14 -118.5v-3l4 -2q36 -3 70 -3q98 0 260 45l-13 -91q-40 -5 -70 -8t-52 -3q-35 0 -81.5 6.5t-105.5 18.5l-17 3v-3q-8 -53 -23.5 -121t-40.5 -150l-10 -34l7 3q111 35 290 35
q40 0 81 -2.5t84 -8.5zM291 901l-88 -4q-5 18 -12 39t-15 44l103 -6q8 -32 12 -73zM495 903l-90 4q6 46 13 73l104 6q-8 -25 -15 -45t-12 -38z" />
    <glyph glyph-name="endash" unicode="&#x2013;" horiz-adv-x="755" 
d="M493 319q-222 -3 -453 51v22q61 -8 120.5 -12t117.5 -4q218 0 437 58l-13 -100q-103 -13 -209 -15z" />
    <glyph glyph-name="emdash" unicode="&#x2014;" horiz-adv-x="1024" 
 />
    <glyph glyph-name="quoteleft" unicode="&#x2018;" horiz-adv-x="192" 
d="M113 800l6 -3q-16 -32 -26 -60t-14 -54l-4 -32l49 2q5 -19 12 -39.5t15 -42.5l-103 6q-13 22 -6 52l5 21q16 77 66 150z" />
    <glyph glyph-name="quoteright" unicode="&#x2019;" horiz-adv-x="192" 
d="M78 571l-6 3q16 32 26 60t14 54l4 32l-49 -2q-5 19 -12 39.5t-15 42.5l103 -6q13 -22 6 -52l-5 -21q-16 -77 -66 -150z" />
    <glyph glyph-name="quotesinglbase" unicode="&#x201a;" horiz-adv-x="175" 
d="M72 0l-5 2q26 48 33 97l4 27l-41 -2q-7 23 -13 40.5t-10 28.5l87 -5q11 -20 5 -44l-4 -17q-16 -69 -56 -127z" />
    <glyph glyph-name="quotedblleft" unicode="&#x201c;" horiz-adv-x="341" 
d="M189 608q0 5 8 42q20 80 66 150l7 -2q-31 -54 -40 -115l-5 -32l49 2l12 -39q4 -10 7.5 -21t7.5 -22l-103 7q-9 14 -9 30zM40 608q0 -1 8 42l3 14q13 64 63 136l7 -2q-31 -54 -40 -115l-5 -32l49 2q5 -17 12 -37.5t15 -44.5l-103 7q-9 14 -9 30z" />
    <glyph glyph-name="quotedblright" unicode="&#x201d;" horiz-adv-x="341" 
d="M78 571l-6 3q34 65 40 114l4 32l-49 -2q-5 19 -12 39.5t-15 42.5l103 -6q9 -14 9 -30q0 -6 -8 -43q-20 -78 -66 -150zM227 571l-7 3q31 56 40 114l5 32l-49 -2q-5 19 -12 39.5t-15 42.5l103 -6q9 -14 9 -31q0 -5 -8 -42v0q-17 -77 -66 -150z" />
    <glyph glyph-name="quotedblbase" unicode="&#x201e;" horiz-adv-x="296" 
d="M72 0l-5 2q26 48 33 97l4 27l-41 -2q-7 23 -13 40.5t-10 28.5l87 -5q11 -22 1 -61q-17 -70 -56 -127zM198 0l-6 2q27 52 34 97l4 27l-41 -2q-2 9 -5 18t-6 17l-12 34l84 -4q6 -11 6 -26q0 -11 -5 -36v0q-17 -73 -53 -127z" />
    <glyph glyph-name="dagger" unicode="&#x2020;" 
 />
    <glyph glyph-name="bullet" unicode="&#x2022;" 
 />
    <glyph glyph-name="ellipsis" unicode="&#x2026;" horiz-adv-x="744" 
 />
    <glyph glyph-name="perthousand" unicode="&#x2030;" horiz-adv-x="1094" 
 />
    <glyph glyph-name="guilsinglleft" unicode="&#x2039;" horiz-adv-x="232" 
 />
    <glyph glyph-name="guilsinglright" unicode="&#x203a;" horiz-adv-x="232" 
 />
    <glyph glyph-name="afii61352" unicode="&#x2116;" horiz-adv-x="949" 
 />
    <glyph glyph-name="trademark" unicode="&#x2122;" horiz-adv-x="900" 
 />
    <glyph glyph-name="periodcentered" unicode="&#xb7;" horiz-adv-x="379" 
 />
    <glyph glyph-name="periodcentered" unicode="&#x2219;" horiz-adv-x="379" 
 />
    <glyph glyph-name="u0000" horiz-adv-x="1000" 
 />
    <glyph glyph-name="u0009" horiz-adv-x="1000" 
 />
    </font>
</defs>
</svg>
